<svg width="206" height="35" viewBox="0 0 206 35" fill="none" xmlns="http://www.w3.org/2000/svg">
<g clip-path="url(#clip0_2004_188)">
<path d="M6.03168 5.39749L15.6725 0L25.3133 5.39749L21.6959 7.29499L15.6725 3.9385L9.49248 7.29499L6.03168 5.39749ZM25.165 12.1025L21.6959 10.205L15.6725 13.5615L9.49248 10.205L6.02344 12.1025V16.041L12.0551 19.3975V26.254L15.5242 28.295L18.9932 26.254V19.549L25.0249 16.1925V12.1105H25.165V12.1025ZM25.165 22.8975V18.959L21.6959 21V24.787L25.165 22.8975ZM27.7276 24.205L21.7042 27.5615V31.5L31.3532 26.1025V15.3155L27.7358 17.5L27.7276 24.205ZM24.2586 8.75399L27.7276 10.795V14.7335L31.1966 12.6925V8.75399L27.7276 6.71298L24.2586 8.75399ZM12.0551 29.0205V32.959L15.5242 35L18.9932 32.959V29.0205L15.5242 31.0615L12.0551 29.0205ZM6.02344 22.8975L9.49248 24.795V20.8565L6.02344 18.8155V22.8975ZM12.0551 8.75399L15.5242 10.795L19.1415 8.75399L15.6725 6.71298L12.0551 8.75399ZM3.46904 10.795L7.0864 8.75399L3.46904 6.71298L0 8.75399V12.6925L3.46904 14.7335V10.795ZM3.46904 17.5L0 15.459V26.246L9.64904 31.6435V27.705L3.61736 24.3485V17.492L3.46904 17.5Z" fill="#F0B90B"/>
<path d="M59.0726 22.0205C59.0726 19.3975 57.5647 18.082 55.3069 17.205C56.8148 16.4795 58.0179 15.164 58.0179 12.9795C58.0179 9.91796 55.4552 7.87695 51.3847 7.87695H42.0405V27.418H51.6813C56.0568 27.2665 59.0726 25.5205 59.0726 22.0205ZM53.4941 13.705C53.4941 15.164 52.2911 15.746 50.33 15.746H46.2594V11.5205H50.6266C52.596 11.5205 53.4941 12.2539 53.4941 13.705ZM54.7054 21.4385C54.7054 22.8975 53.5024 23.623 51.5412 23.623H46.2676V19.3975H51.3929C53.6507 19.246 54.7054 20.123 54.7054 21.4385Z" fill="white"/>
<path d="M80.9249 27.2665V7.87695H76.5494V19.836L67.0569 7.87695H62.9946V27.418H67.3618V15.0205L77.1592 27.418H80.9249V27.2665Z" fill="white"/>
<path d="M103.074 22.0205C103.074 19.3975 101.566 18.082 99.3084 17.205C100.816 16.4795 102.019 15.164 102.019 12.9795C102.019 9.91796 99.4567 7.87695 95.3862 7.87695H86.042V27.418H95.6828C100.058 27.2665 103.074 25.5205 103.074 22.0205ZM97.6522 13.705C97.6522 15.164 96.4491 15.746 94.488 15.746H90.4174V11.5205H94.7846C96.5974 11.5205 97.6522 12.2539 97.6522 13.705ZM98.7069 21.4385C98.7069 22.8975 97.5038 23.623 95.5427 23.623H90.2691V19.3975H95.3944C97.6522 19.246 98.7069 20.123 98.7069 21.4385Z" fill="white"/>
<path d="M129.747 23.918L127.489 21.7335C125.833 23.336 124.177 24.213 121.763 24.213C117.84 24.213 115.129 21.1515 115.129 17.213C115.129 13.418 117.997 10.3644 121.763 10.3644C124.02 10.3644 125.833 11.3849 127.341 12.8439L129.599 10.2209C127.638 8.47491 125.38 7.15942 121.763 7.15942C115.731 7.15942 111.364 11.6799 111.364 17.2209C111.364 22.9054 115.731 27.2824 121.614 27.2824C125.38 27.2665 127.638 25.959 129.747 23.918Z" fill="white"/>
<path d="M146.927 18.8155V26.9795H150.396V7.43848H146.927V15.6025H137.286V7.43848H133.817V26.9795H137.286V18.8155H146.927Z" fill="white"/>
<path d="M166.366 7.43848H163.053L154.162 27.123H157.779L159.889 22.459H169.381L171.491 27.123H175.256L166.366 7.43848ZM168.178 19.246H161.249L164.718 11.5205L168.178 19.246Z" fill="white"/>
<path d="M179.179 7.43848V26.9795H182.64V7.43848H179.179Z" fill="white"/>
<path d="M202.382 21L191.53 7.58198H188.366V27.123H191.835V13.123L202.984 26.9795H206V7.43848H202.531V21H202.382Z" fill="white"/>
</g>
<defs>
<clipPath id="clip0_2004_188">
<rect width="206" height="35" fill="white"/>
</clipPath>
</defs>
</svg>
