<svg width="110" height="35" viewBox="0 0 110 35" fill="none" xmlns="http://www.w3.org/2000/svg">
<g clip-path="url(#clip0_2004_218)">
<path fill-rule="evenodd" clip-rule="evenodd" d="M36.6217 16.9233C36.4877 15.4001 35.3045 14.0095 33.6751 14.0095C32.0457 14.0095 30.8852 15.4001 30.7292 16.9233H36.621H36.6217ZM37.2907 17.2259C37.2899 17.31 37.2555 17.3905 37.195 17.4496C37.1344 17.5088 37.0526 17.5418 36.9675 17.5414H30.7292C30.8852 19.0653 32.0457 20.4559 33.6751 20.4559C34.7909 20.4559 35.6173 20.0363 36.2422 19.153C36.333 19.0326 36.4657 18.9538 36.6396 19.0265C36.6794 19.0441 36.715 19.0699 36.744 19.1021C36.773 19.1343 36.7947 19.1723 36.8077 19.2134C36.8207 19.2546 36.8247 19.298 36.8194 19.3408C36.8141 19.3836 36.7997 19.4248 36.7771 19.4617C36.1529 20.5443 34.903 21.0733 33.6751 21.0733C31.5775 21.0733 30.0815 19.2196 30.0815 17.2327C30.0815 15.2457 31.5775 13.3914 33.6751 13.3914C35.7713 13.3914 37.2865 15.241 37.2907 17.2259ZM44.8573 13.5457C45.036 13.5457 45.1701 13.7008 45.1701 13.8551C45.1701 14.0319 45.036 14.1638 44.8573 14.1638H43.1832V20.6544C43.1815 20.7358 43.148 20.8133 43.0899 20.8708C43.0317 20.9283 42.9533 20.9614 42.8711 20.9632C42.7888 20.9616 42.7102 20.9286 42.6519 20.8711C42.5936 20.8135 42.5601 20.7359 42.5583 20.6544V14.1638H40.9516C40.9103 14.1649 40.8692 14.1576 40.8308 14.1424C40.7925 14.1273 40.7576 14.1046 40.7284 14.0757C40.6991 14.0469 40.6761 14.0124 40.6607 13.9745C40.6453 13.9366 40.6378 13.896 40.6388 13.8551C40.6388 13.7008 40.7729 13.5457 40.9516 13.5457H42.5583V11.1698C42.5583 11.0202 42.6614 10.8815 42.8106 10.8577C43.0182 10.8237 43.1832 10.9658 43.1832 11.1616V13.5457H44.8573ZM55.057 16.6805V20.6109C55.057 20.787 54.901 20.919 54.7442 20.919C54.703 20.9199 54.662 20.9125 54.6237 20.8974C54.5854 20.8822 54.5506 20.8595 54.5214 20.8306C54.4923 20.8018 54.4693 20.7674 54.4539 20.7295C54.4386 20.6916 54.4312 20.651 54.4321 20.6102V16.6805C54.4321 15.3559 53.6731 14.0312 52.1778 14.0312C50.2583 14.0312 49.4326 15.687 49.5447 17.387C49.5447 17.4312 49.5667 17.6298 49.5667 17.6522V20.6021C49.5667 20.7517 49.4635 20.8904 49.315 20.9149C49.1067 20.9482 48.9417 20.8061 48.9417 20.6102V7.69568C48.9417 7.54132 49.0758 7.38696 49.2539 7.38696C49.4326 7.38696 49.5667 7.54132 49.5667 7.69568V15.003C50.1029 14.0537 51.062 13.4131 52.1778 13.4131C54.0079 13.4131 55.057 15.003 55.057 16.6805ZM65.5696 16.9233C65.4355 15.4001 64.2524 14.0095 62.623 14.0095C60.9936 14.0095 59.8331 15.4001 59.677 16.9233H65.5696ZM66.2385 17.2259C66.2378 17.31 66.2034 17.3905 66.1428 17.4496C66.0823 17.5088 66.0005 17.5418 65.9154 17.5414H59.677C59.8331 19.0653 60.9936 20.4559 62.623 20.4559C63.7395 20.4559 64.5652 20.0363 65.1901 19.153C65.2809 19.0326 65.4135 18.9538 65.5875 19.0265C65.6273 19.0441 65.6629 19.0699 65.6918 19.1021C65.7208 19.1343 65.7425 19.1723 65.7555 19.2134C65.7686 19.2546 65.7726 19.298 65.7673 19.3408C65.762 19.3836 65.7476 19.4248 65.725 19.4617C65.1007 20.5443 63.8509 21.0733 62.623 21.0733C60.5254 21.0733 59.0301 19.2196 59.0301 17.2327C59.0301 15.2457 60.5254 13.3914 62.623 13.3914C64.7192 13.3914 66.2344 15.241 66.2385 17.2259ZM73.8945 13.8327C73.8945 14.0319 73.7832 14.1421 73.6044 14.1638C71.7743 14.429 70.9486 15.908 70.9486 17.6298V20.5803C70.9486 20.7299 70.8455 20.868 70.6963 20.8924C70.4887 20.9258 70.323 20.7836 70.323 20.5878V13.8626C70.323 13.713 70.4261 13.575 70.5753 13.5505C70.7836 13.5172 70.9486 13.6593 70.9486 13.8551V15.224C71.4615 14.3624 72.4886 13.5464 73.5597 13.5464C73.7158 13.5464 73.8945 13.6566 73.8945 13.8327ZM83.4694 16.9233C83.3353 15.4001 82.1528 14.0095 80.5234 14.0095C78.894 14.0095 77.7335 15.4001 77.5775 16.9233H83.4694ZM84.139 17.2259C84.1381 17.31 84.1036 17.3903 84.0431 17.4494C83.9826 17.5085 83.9009 17.5416 83.8159 17.5414H77.5775C77.7335 19.0653 78.894 20.4559 80.5234 20.4559C81.6392 20.4559 82.4649 20.0363 83.0899 19.153C83.1813 19.0326 83.314 18.9538 83.4879 19.0265C83.5337 19.0461 83.5739 19.0768 83.6047 19.1156C83.6356 19.1544 83.6561 19.2002 83.6646 19.2489C83.6787 19.3224 83.6648 19.3985 83.6254 19.4624C83.0005 20.5436 81.7506 21.074 80.5234 21.074C78.4252 21.074 76.9305 19.2196 76.9305 17.232C76.9305 15.2457 78.4252 13.3914 80.5234 13.3914C82.6189 13.3914 84.1355 15.241 84.1397 17.2259H84.139ZM94.2047 13.9109V20.6544C94.2047 20.8312 94.0486 20.9632 93.8925 20.9632C93.8512 20.9642 93.8102 20.9569 93.7718 20.9418C93.7334 20.9266 93.6985 20.9039 93.6693 20.8751C93.64 20.8462 93.617 20.8118 93.6016 20.7738C93.5862 20.7359 93.5788 20.6953 93.5797 20.6544V19.374C93.0669 20.3892 92.1518 21.1182 90.9906 21.1182C89.1385 21.1182 88.112 19.5284 88.112 17.8508V13.9C88.112 13.745 88.2454 13.5899 88.4242 13.5899C88.6029 13.5899 88.737 13.745 88.737 13.8993V17.8508C88.737 19.1754 89.4953 20.5001 90.9906 20.5001C93.0889 20.5001 93.5797 18.5573 93.5797 16.4153V13.8993C93.5804 13.8513 93.5923 13.8041 93.6144 13.7613C93.6365 13.7185 93.6682 13.6814 93.7072 13.6527C93.7461 13.624 93.7912 13.6046 93.839 13.596C93.8868 13.5873 93.9359 13.5897 93.9826 13.6028C94.0482 13.6236 94.1053 13.6649 94.1453 13.7204C94.1854 13.7759 94.2062 13.8427 94.2047 13.9109ZM109.984 16.6588V20.6096C109.984 20.787 109.828 20.919 109.672 20.919C109.631 20.92 109.59 20.9127 109.551 20.8976C109.513 20.8824 109.478 20.8597 109.449 20.8309C109.42 20.802 109.397 20.7676 109.381 20.7296C109.366 20.6917 109.358 20.6511 109.359 20.6102V16.6588C109.359 15.3341 108.601 14.0319 107.105 14.0319C105.231 14.0319 104.516 16.0182 104.516 17.5638V20.6102C104.516 20.787 104.36 20.919 104.204 20.919C104.162 20.92 104.121 20.9127 104.083 20.8976C104.045 20.8824 104.01 20.8597 103.981 20.8308C103.951 20.802 103.929 20.7675 103.913 20.7296C103.898 20.6917 103.891 20.6511 103.892 20.6102V16.6588C103.892 15.3341 103.133 14.0319 101.637 14.0319C99.7397 14.0319 98.9587 15.5109 99.0254 17.4754C99.0254 17.5196 99.0481 17.608 99.0254 17.6298V20.6028C99.0254 20.7524 98.923 20.8897 98.7738 20.9142C98.5655 20.9482 98.4005 20.8054 98.4005 20.6102V13.8633C98.4005 13.7137 98.5036 13.575 98.6528 13.5505C98.8604 13.5172 99.0254 13.6593 99.0254 13.8551V14.9805C99.5617 14.0319 100.521 13.4138 101.638 13.4138C102.909 13.4138 103.892 14.208 104.293 15.3783C104.806 14.2305 105.81 13.4131 107.105 13.4131C108.935 13.4131 109.984 14.9805 109.984 16.6588Z" fill="white"/>
<g clip-path="url(#clip1_2004_218)">
<path d="M10.9964 1.5L1.17578 17.7967L10.9958 13.3333L10.9964 1.5Z" fill="#8A92B2"/>
<path d="M10.9964 13.3333L1.17578 17.7967L10.9958 23.6033L10.9964 13.3333ZM20.8184 17.7967L10.9964 1.5V13.3333L20.8184 17.7967Z" fill="#62688F"/>
<path d="M10.9966 23.6033L20.8186 17.7966L10.9966 13.3333V23.6033Z" fill="#454A75"/>
<path d="M1.17578 19.6599L10.9958 33.4999V25.4626L1.17578 19.6599Z" fill="#8A92B2"/>
<path d="M10.9966 25.4626V33.4999L20.8239 19.6599L10.9966 25.4626Z" fill="#62688F"/>
</g>
</g>
<defs>
<clipPath id="clip0_2004_218">
<rect width="110" height="34" fill="white" transform="translate(0 0.5)"/>
</clipPath>
<clipPath id="clip1_2004_218">
<rect width="32" height="32" fill="white" transform="translate(-5 1.5)"/>
</clipPath>
</defs>
</svg>
