<svg width="39" height="33" viewBox="0 0 39 33" fill="none" xmlns="http://www.w3.org/2000/svg">
<g clip-path="url(#clip0_2002_15)">
<path d="M15.2858 21.0734L14.9463 28.6919L19.8143 24.5346L15.2858 21.0734Z" fill="#E9E9E9"/>
<path fill-rule="evenodd" clip-rule="evenodd" d="M14.0843 18.4996C15.0428 18.052 16.1705 18.1742 17.011 18.8165L21.5395 22.2777C22.2211 22.7987 22.6308 23.5999 22.6541 24.4576C22.6773 25.3152 22.3117 26.1375 21.6593 26.6947L16.7913 30.852C15.931 31.5867 14.7167 31.7409 13.7001 31.2444C12.6835 30.748 12.0584 29.6957 12.1088 28.5655L12.4483 20.9469C12.4954 19.8902 13.1258 18.9471 14.0843 18.4996ZM14.9466 28.6919L19.8145 24.5346L15.286 21.0734L14.9466 28.6919Z" fill="#111111"/>
<path d="M34.4491 2.90608L3.48394 14.7562C3.29188 14.8297 3.12704 14.9611 3.01196 15.1326C2.89688 15.304 2.83717 15.507 2.84099 15.7139C2.84482 15.9208 2.91199 16.1215 3.03332 16.2885C3.15465 16.4555 3.32423 16.5807 3.51888 16.647L11.5044 19.3645L29.6881 8.36421L15.2867 21.0738L26.498 29.6424C26.7668 29.8479 27.0821 29.983 27.4155 30.0357C27.7489 30.0883 28.0901 30.0568 28.4085 29.944C28.7268 29.8311 29.0124 29.6406 29.2397 29.3892C29.4669 29.1379 29.6287 28.8338 29.7106 28.504L35.7711 4.08885C35.8153 3.91078 35.8102 3.72392 35.7564 3.54855C35.7026 3.37319 35.6021 3.21602 35.4659 3.09412C35.3296 2.97222 35.1628 2.89025 34.9836 2.8571C34.8043 2.82395 34.6195 2.84089 34.4491 2.90608Z" fill="#E9E9E9"/>
<path fill-rule="evenodd" clip-rule="evenodd" d="M2.46844 12.1032L33.4336 0.253139C34.0916 0.00133062 34.8065 -0.0643499 35.4999 0.063885C36.1932 0.192104 36.8362 0.508804 37.3596 0.977132C37.8829 1.44532 38.2667 2.04688 38.4718 2.71522C38.6768 3.38345 38.6962 4.09494 38.5278 4.77317L32.4673 29.1883C32.273 29.9711 31.8885 30.695 31.3463 31.2945C30.8041 31.8941 30.1209 32.3507 29.357 32.6214C28.593 32.8922 27.7734 32.9679 26.9724 32.8415C26.1715 32.7151 25.4158 32.3908 24.7728 31.8993C24.7728 31.8993 24.7729 31.8994 24.7728 31.8993L13.5615 23.3307C13.1087 22.9846 12.7758 22.5148 12.5965 21.9867C11.9623 22.2509 11.2485 22.2781 10.589 22.0537L2.6035 19.3361C1.85151 19.0801 1.19952 18.5975 0.735012 17.9582C0.270703 17.3191 0.0152046 16.5536 0.000657729 15.7664C-0.013889 14.9792 0.213142 14.205 0.653259 13.5494C1.09356 12.8935 1.72675 12.3871 2.46844 12.1032ZM29.6879 8.36421L15.2864 21.0738L26.4977 29.6424C26.7666 29.8479 27.0818 29.983 27.4152 30.0357C27.7487 30.0883 28.0899 30.0568 28.4082 29.944C28.7266 29.8312 29.0122 29.6406 29.2394 29.3893C29.4667 29.138 29.6285 28.8338 29.7103 28.504L35.4288 5.46684L35.7709 4.08885C35.8151 3.91078 35.81 3.72392 35.7562 3.54855C35.7024 3.37319 35.6019 3.21602 35.4656 3.09413C35.3294 2.97223 35.1626 2.89025 34.9833 2.8571C34.8041 2.82395 34.6192 2.84089 34.4489 2.90609L33.0943 3.42445L4.26404 14.4575L3.4837 14.7562C3.29164 14.8297 3.1268 14.9611 3.01172 15.1326C2.89664 15.304 2.83693 15.507 2.84075 15.7139C2.84458 15.9208 2.91175 16.1215 3.03308 16.2885C3.15441 16.4555 3.32399 16.5807 3.51864 16.647L11.5042 19.3645L29.6879 8.36421Z" fill="#111111"/>
</g>
<defs>
<clipPath id="clip0_2002_15">
<rect width="38.6412" height="32.901" fill="white"/>
</clipPath>
</defs>
</svg>
