<svg width="248" height="95" viewBox="0 0 248 95" fill="none" xmlns="http://www.w3.org/2000/svg">
<rect width="247.915" height="94.0804" transform="translate(0.0849609 0.0703125)" fill="#0B0B0B"/>
<g clip-path="url(#clip0_2004_299)">
<path d="M112.724 44.4402L47.126 44.2012L86.8728 48.9812C86.0653 54.1438 89.745 55.6468 91.6858 55.7531C96.3436 55.7531 97.3011 52.0352 97.1976 50.1763L108.842 51.2916L125.377 63.0028L141.525 51.2916L153.48 50.1763C154.039 54.8926 157.491 55.8592 159.147 55.7531C164.177 54.9245 164.348 50.8933 163.804 48.9812L202.232 44.2808L137.876 44.4402L125.377 52.5663L112.724 44.4402Z" fill="white"/>
<path d="M77.8562 32.4902H75.8162V37.0643C75.8162 38.1999 75.2408 38.4838 74.9532 38.4838H71.501V40.2977H75.6593C77.6051 40.1715 77.9347 38.2473 77.8562 37.3009V32.4902Z" fill="white"/>
<path d="M86.8726 40.2977L86.7949 32.4902H94.9462V34.0039L88.3476 34.0836V35.7566H94.2475V37.1906H88.3476V38.7043H95.0238V40.2977H86.8726Z" fill="white"/>
<path d="M154.332 40.2977L154.255 32.4902H162.406V34.0039L155.807 34.0836V35.7566H161.707V37.1906H155.807V38.7043H162.484V40.2977H154.332Z" fill="white"/>
<path d="M102.865 34.1981V32.4902H111.87V34.1981H108.222V40.2977H106.669V34.1981H102.865Z" fill="white"/>
<path d="M119.478 34.1981V32.4902H128.483V34.1981H124.834V40.2977H123.281V34.1981H119.478Z" fill="white"/>
<path d="M170.247 34.1981V32.4902H179.252V34.1981H175.604V40.2977H174.051V34.1981H170.247Z" fill="white"/>
<path d="M137.565 37.9873H136.013C136.261 40.0268 138.186 40.5898 139.118 40.6164H142.999C144.552 40.6164 145.406 39.6603 145.639 39.1823C146.819 36.378 144.371 35.7832 142.999 35.8363L138.575 35.677C138.016 35.7407 137.876 35.1193 137.876 34.8006C137.876 34.0995 138.342 33.8711 138.575 33.8446H142.301C143.605 33.8446 143.776 34.6944 143.698 35.1193H145.406C145.903 33.5897 144.009 32.7292 142.999 32.4902H139.661C136.742 32.4902 136.013 34.0305 136.013 34.8006C136.013 36.8401 137.721 37.2438 138.575 37.1906H142.456C143.76 37.1906 144.035 37.7218 144.009 37.9873C144.009 38.8159 143.336 39.1292 142.999 39.1823H139.118C138.062 39.1823 137.643 38.3857 137.565 37.9873Z" fill="white"/>
</g>
<defs>
<clipPath id="clip0_2004_299">
<rect width="155.106" height="30.5126" fill="white" transform="translate(47.126 32.4902)"/>
</clipPath>
</defs>
</svg>
