<svg width="248" height="95" viewBox="0 0 248 95" fill="none" xmlns="http://www.w3.org/2000/svg">
<rect width="247.915" height="94.0804" transform="translate(0 0.250977)" fill="#0B0B0B"/>
<g clip-path="url(#clip0_2004_264)">
<path d="M40.3955 33.6274H52.8131C55.1784 33.6274 56.9523 34.2099 58.2663 35.1807C59.7118 36.3457 60.5002 38.0285 60.5002 40.0995C60.5002 42.4942 59.5147 43.9828 57.5436 44.8889V45.0183C60.1717 45.8597 61.6828 48.1897 61.6828 50.9727C61.6828 53.6262 60.6316 55.6973 58.9234 56.9917C57.4779 58.0272 55.6383 58.4803 53.1416 58.4803H40.3955V33.6274ZM51.5648 43.3356C52.8788 43.3356 53.8643 42.6237 53.8643 41.1351C53.8643 39.7112 52.8788 38.9993 51.4991 38.9993H47.2285V43.2709H51.5648V43.3356ZM52.1561 52.979C53.6672 52.979 54.7842 52.0729 54.7842 50.4549C54.7842 48.7074 53.6015 47.9308 52.1561 47.9308H47.2942V53.0437H52.1561V52.979ZM62.7998 33.6274H69.3042V58.545H62.7998V33.6274ZM70.6182 49.6782C70.6182 44.0475 74.2975 40.2937 80.0136 40.2937C85.7296 40.2937 89.3432 44.1122 89.3432 49.6782C89.3432 55.309 85.7296 59.0628 80.0136 59.0628C74.2975 59.0628 70.6182 55.309 70.6182 49.6782ZM82.8387 49.6782C82.8387 46.5716 81.8532 44.63 79.8822 44.63C77.9111 44.63 76.9913 46.5716 76.9913 49.6782C76.9913 52.7849 77.9111 54.7912 79.8822 54.7912C81.8532 54.7265 82.8387 52.7849 82.8387 49.6782ZM90.0659 49.6782C90.0659 44.0475 93.7452 40.2937 99.4612 40.2937C105.177 40.2937 108.725 44.0475 108.725 49.6782C108.725 55.309 105.112 59.0628 99.3956 59.0628C93.7452 59.0628 90.0659 55.309 90.0659 49.6782ZM102.286 49.6782C102.286 46.5716 101.301 44.63 99.3298 44.63C97.3588 44.63 96.439 46.5716 96.439 49.6782C96.439 52.7849 97.3588 54.7912 99.3298 54.7912C101.301 54.7265 102.286 52.7849 102.286 49.6782ZM110.039 40.7467H116.084V43.4003H116.215C117.398 41.3292 119.04 40.229 121.668 40.229C123.968 40.229 125.676 41.3292 126.53 43.2709H126.662C128.107 40.9409 130.012 40.229 132.246 40.229C136.451 40.229 138.225 43.2709 138.225 47.3483V58.4803H131.918V48.4485C131.918 46.6364 131.327 45.4714 129.75 45.4714C128.173 45.4714 127.384 46.8952 127.384 48.8369V58.4803H121.077V48.4485C121.077 46.6364 120.486 45.4714 118.909 45.4714C117.332 45.4714 116.544 46.8952 116.544 48.8369V58.4803H110.039V40.7467ZM146.175 56.1503H146.109V58.4803H140.065V33.6274H146.372V42.5589H146.504C147.686 41.0056 149.329 40.1643 151.628 40.1643C156.162 40.1643 158.79 44.177 158.79 49.5488C158.79 55.5679 155.965 59.0628 151.234 59.0628C149.263 59.0628 147.226 58.1567 146.175 56.1503ZM152.285 49.4841C152.285 46.6364 151.234 44.7594 149.329 44.7594C147.358 44.7594 146.175 46.6364 146.175 49.4841C146.175 52.3318 147.423 54.2087 149.329 54.2087C151.234 54.2087 152.285 52.3965 152.285 49.4841ZM159.513 49.6135C159.513 44.0475 163.258 40.229 168.645 40.229C171.339 40.229 173.376 41.0704 174.952 42.5589C177.055 44.5653 177.975 47.6719 177.909 51.2963H165.82C166.083 53.4968 167.134 54.6618 169.039 54.6618C170.156 54.6618 171.142 54.144 171.536 52.979H177.646C176.595 57.0564 173.376 59.0628 168.842 59.0628C163.258 58.9981 159.513 55.2442 159.513 49.6135ZM165.82 47.7366H171.602C171.47 45.6008 170.288 44.5006 168.776 44.5006C167.002 44.4358 166.017 45.6655 165.82 47.7366ZM185.07 43.7886H185.202C186.516 41.3292 188.224 40.3584 190.392 40.3584C190.918 40.3584 191.246 40.4231 191.443 40.5526V45.9891H191.312C187.567 45.3419 185.399 47.0894 185.399 51.1021V58.545H179.026V40.7467H185.07V43.7886ZM192.101 58.545H198.211C198.474 59.3217 199.262 60.0336 200.773 60.0336C202.81 60.0336 203.533 58.8039 203.533 56.927V55.6326H203.401C202.416 56.7976 201.036 57.6389 199.065 57.6389C195.188 57.6389 191.772 54.7912 191.772 49.2252C191.772 44.1122 194.531 40.1643 198.736 40.1643C201.167 40.1643 202.613 41.1351 203.598 42.6237H203.73V40.682H209.774V56.0856C209.774 58.9333 208.789 61.1339 207.278 62.4283C205.701 63.7874 203.467 64.3699 200.905 64.3699C196.043 64.4346 192.692 62.493 192.101 58.545ZM203.795 48.9663C203.795 46.7658 202.744 44.9536 200.905 44.9536C199.131 44.9536 198.014 46.5069 198.014 48.9663C198.014 51.361 199.131 53.0437 200.905 53.0437C202.678 53.0437 203.795 51.2963 203.795 48.9663Z" fill="white"/>
</g>
<defs>
<clipPath id="clip0_2004_264">
<rect width="170.362" height="31.7839" fill="white" transform="translate(39.4121 33.3062)"/>
</clipPath>
</defs>
</svg>
