<svg width="248" height="95" viewBox="0 0 248 95" fill="none" xmlns="http://www.w3.org/2000/svg">
<rect width="247.915" height="94.0804" transform="translate(0.0849609 0.819336)" fill="#0B0B0B"/>
<g clip-path="url(#clip0_2004_267)">
<mask id="mask0_2004_267" style="mask-type:luminance" maskUnits="userSpaceOnUse" x="34" y="33" width="180" height="31">
<path d="M213.673 33.8745H34.4121V63.1157H213.673V33.8745Z" fill="white"/>
</mask>
<g mask="url(#mask0_2004_267)">
<path d="M61.95 50.0501C61.5887 53.346 60.0906 56.4054 57.7213 58.686C55.3522 60.9665 52.2649 62.3208 49.0067 62.509C45.7488 62.697 42.5304 61.7066 39.9223 59.7134C37.3142 57.7202 35.4849 54.8528 34.7586 51.6196C34.0323 48.3865 34.4559 44.9965 35.9544 42.0505C37.4529 39.1045 39.9295 36.7929 42.945 35.5255C45.9606 34.258 49.3204 34.1166 52.4287 35.1264C55.5371 36.1361 58.1932 38.2317 59.9262 41.0417L55.5953 44.168C53.6518 41.2475 50.9403 39.849 48.1881 39.849C43.6953 39.849 40.1739 43.7156 40.1739 48.4872C40.1739 53.2589 43.7357 57.0843 48.1881 57.0843C52.1954 57.0843 55.5544 54.1218 56.324 50.0504L61.95 50.0501Z" fill="white"/>
<path d="M83.1725 52.9469C83.1725 58.1711 78.8413 62.5311 73.6604 62.5311C71.7985 62.5151 69.983 61.9392 68.4427 60.8762C66.9024 59.8133 65.7061 58.3108 65.0045 56.558C64.3029 54.8053 64.1278 52.8808 64.5009 51.0269C64.8737 49.173 65.7783 47.473 67.1006 46.1406C68.4227 44.8085 70.1033 43.9037 71.9307 43.5405C73.758 43.1773 75.6502 43.3719 77.3688 44.0997C79.0875 44.8276 80.5558 46.0561 81.5885 47.6304C82.6213 49.2049 83.1725 51.0547 83.1725 52.9469ZM77.9511 52.9469C77.9717 52.3615 77.8742 51.7778 77.6643 51.2322C77.4546 50.6866 77.137 50.1902 76.7314 49.7741C76.3257 49.3578 75.8404 49.0303 75.3055 48.812C74.7706 48.5938 74.1973 48.4889 73.6209 48.5044C71.314 48.5044 69.4115 50.3555 69.4115 52.9469C69.4115 55.5795 71.314 57.3894 73.6209 57.3894C74.1971 57.4049 74.7705 57.3 75.3054 57.0816C75.8402 56.8633 76.3255 56.536 76.7311 56.1196C77.1369 55.7035 77.4543 55.2072 77.6642 54.6616C77.8737 54.116 77.9718 53.5323 77.9511 52.9469Z" fill="white"/>
<path d="M85.5293 37.9736C85.5293 36.534 86.9054 35.1353 88.4839 35.1353C90.1838 35.1353 91.5198 36.4926 91.5198 37.9736C91.5022 38.775 91.173 39.5368 90.604 40.092C90.035 40.6473 89.2727 40.9508 88.4839 40.9361C87.7121 40.9199 86.9756 40.6038 86.426 40.0528C85.8765 39.5018 85.5555 38.7577 85.5293 37.9736ZM91.0339 62.5305H85.9744V44.1436H91.0744V62.5305H91.0339Z" fill="white"/>
<path d="M112.13 62.5311H107.072V53.3567C107.072 50.3941 105.373 48.9141 103.308 48.9141C101.041 48.9141 98.9769 50.3951 98.9769 53.3567V62.5311H93.877V44.1441H98.9769V45.4183C99.9887 44.2665 102.094 43.7319 103.753 43.7319C108.691 43.7319 112.132 48.0098 112.132 53.3162L112.13 62.5311Z" fill="white"/>
<path d="M114.492 62.5312V35.4224H123.761C130.035 35.4224 134.811 40.194 134.811 46.076C134.811 53.0278 130.278 57.8403 123.195 57.8403H119.997V62.5296L114.492 62.5312ZM123.073 52.7415C126.999 52.7415 129.226 50.3143 129.226 46.5297C129.226 43.239 127.242 40.524 123.397 40.524H120.038V52.7408L123.073 52.7415Z" fill="white"/>
<path d="M154.901 58.7055C153.362 61.0501 150.165 62.531 146.967 62.531C141.544 62.531 137.172 58.2121 137.172 52.9468C137.165 51.6897 137.403 50.4437 137.872 49.2805C138.341 48.1172 139.032 47.0599 139.905 46.1691C140.778 45.2782 141.815 44.5717 142.958 44.09C144.1 43.6083 145.325 43.361 146.562 43.3624C148.54 43.354 150.472 43.9711 152.09 45.1282C153.708 46.2853 154.931 47.9252 155.59 49.8204L145.51 57.1834C145.994 57.3379 146.501 57.4074 147.008 57.3892C148.546 57.3892 150.084 56.8544 150.895 55.5381L154.901 58.7055ZM142.434 54.182L149.031 49.4092C148.309 48.8515 147.428 48.5483 146.521 48.5452C144.214 48.5452 142.312 50.3965 142.312 52.9878C142.31 53.3887 142.351 53.7899 142.434 54.182Z" fill="white"/>
<path d="M176.325 35.0112V62.1201H171.224V60.8038C170.455 61.8733 168.472 62.5314 166.812 62.5314C161.874 62.5314 157.948 58.2123 157.948 52.9471C157.948 47.6409 161.996 43.3627 166.812 43.3627C168.432 43.3627 170.415 44.1442 171.224 45.0492V35.0112H176.325ZM171.466 52.9458C171.466 50.3543 169.725 48.5032 167.337 48.5032C165.03 48.5032 163.128 50.3543 163.128 52.9458C163.128 55.5783 165.03 57.3883 167.337 57.3883C169.686 57.3886 171.468 55.5373 171.468 52.9458H171.466Z" fill="white"/>
<path d="M178.684 37.9736C178.684 36.534 180.06 35.1353 181.637 35.1353C183.338 35.1353 184.675 36.4926 184.675 37.9736C184.653 38.7666 184.328 39.52 183.77 40.0733C183.21 40.6266 182.459 40.9362 181.68 40.9362C180.899 40.9362 180.148 40.6266 179.589 40.0733C179.029 39.52 178.705 38.7666 178.684 37.9736ZM184.189 62.5305H179.088V44.1436H184.189V62.5305Z" fill="white"/>
<path d="M205.409 43.7337V62.1206H200.308V60.8034C199.54 61.8728 197.556 62.531 195.896 62.531C190.958 62.531 187.032 58.2121 187.032 52.9466C187.032 47.6405 191.079 43.3623 195.896 43.3623C197.515 43.3623 199.499 44.1437 200.308 45.0487V43.7745H205.409V43.7337ZM200.51 52.9479C200.51 50.3564 198.772 48.5053 196.382 48.5053C194.074 48.5053 192.173 50.3564 192.173 52.9479C192.173 55.5804 194.074 57.3904 196.382 57.3904C198.77 57.3904 200.51 55.5394 200.51 52.9479Z" fill="white"/>
<path d="M212.867 57.3477H207.766V62.5305H212.867V57.3477Z" fill="#E0243D"/>
</g>
</g>
<defs>
<clipPath id="clip0_2004_267">
<rect width="179.261" height="29.2412" fill="white" transform="translate(34.4121 33.8745)"/>
</clipPath>
</defs>
</svg>
