<svg width="248" height="95" viewBox="0 0 248 95" fill="none" xmlns="http://www.w3.org/2000/svg">
<rect width="247.915" height="94.0804" transform="translate(0 0.50293)" fill="#0B0B0B"/>
<g clip-path="url(#clip0_2004_283)">
<path fill-rule="evenodd" clip-rule="evenodd" d="M70.2348 55.0675C67.9569 56.4652 65.1367 57.4597 61.9911 57.8628L62.8046 62.1635L54.9676 57.6479C47.8627 56.4652 43.2256 52.4066 43.2256 47.4878C43.2256 44.5042 45.0967 41.5745 47.917 39.5855C50.7914 37.5964 54.832 36.7363 58.981 36.7363C69.2314 36.7363 73.6517 42.2464 74.0584 46.4933C74.4652 50.2294 72.9195 53.401 70.2348 55.0675ZM68.7156 41.8976C67.7123 40.9031 66.4919 40.3655 64.9734 40.3655C63.4547 40.3655 62.1531 40.8224 61.231 41.6288C60.2277 42.5695 59.7667 43.7522 59.7667 45.2036C59.7667 46.3325 60.0921 47.327 60.8514 48.0528C61.5836 48.7785 62.4514 49.1817 63.5361 49.1817C63.9428 49.1817 64.4038 49.1279 65.0005 48.9129C65.597 48.6979 66.0852 48.5097 66.4648 48.2409C66.5175 48.22 66.5703 48.195 66.6183 48.1723C66.6936 48.1366 66.7571 48.1065 66.7903 48.1065C66.9801 48.1065 67.0613 48.2409 67.0613 48.4291C67.0613 48.5366 67.0342 48.6172 66.9801 48.7516C66.9664 48.7786 66.9596 48.7988 66.9528 48.819C66.9461 48.8391 66.9393 48.8592 66.9258 48.886L66.736 49.4773C66.4105 50.4181 65.6513 51.2782 64.6479 52.0577C63.5632 52.8641 62.5055 53.3747 61.421 53.5898C61.2582 53.6166 61.1226 53.6436 61.0141 53.6704C60.96 53.6838 60.9194 53.6972 60.8889 53.7073C60.8583 53.7174 60.8379 53.7242 60.8243 53.7242C60.8243 53.7242 60.77 53.7779 60.77 53.9123C60.77 54.1811 60.8243 54.2349 61.0412 54.2349H61.3124L62.2616 54.1005C64.5395 53.7779 66.4105 52.7834 67.9562 51.1706C69.5019 49.5849 70.2341 47.784 70.2341 45.795C70.18 44.236 69.719 42.9727 68.7156 41.8976ZM53.557 40.392C55.1027 40.392 56.2959 40.9296 57.2993 41.9241C58.3026 42.9992 58.7636 44.2625 58.7636 45.9021C58.7636 47.8911 58.0314 49.692 56.4857 51.2779C54.94 52.8636 53.0688 53.8582 50.7909 54.2076L49.8418 54.342H49.5706C49.3808 54.342 49.2995 54.2882 49.2995 54.0194C49.2995 53.885 49.3537 53.8313 49.3537 53.8313C49.3808 53.8313 49.4622 53.8044 49.5435 53.7775C49.652 53.7507 49.7876 53.7237 49.9503 53.6969C51.035 53.5087 52.0926 52.9712 53.1773 52.1648C54.1807 51.3585 54.9128 50.4984 55.2654 49.5844L55.4552 48.9931C55.4671 48.9696 55.4738 48.946 55.4798 48.9247C55.4875 48.8974 55.4942 48.8738 55.5094 48.8587C55.5637 48.7244 55.5908 48.6437 55.5908 48.5362C55.5908 48.3481 55.5366 48.2137 55.3196 48.2137C55.2654 48.2137 55.1298 48.2674 54.9942 48.3481C54.6763 48.5581 54.2756 48.7189 53.8698 48.8818C53.7563 48.9273 53.6424 48.973 53.5298 49.02C52.9332 49.2082 52.4451 49.2888 52.0655 49.2888C50.9808 49.2888 50.113 48.8856 49.3808 48.1599C48.6486 47.4342 48.2961 46.4934 48.2961 45.4452C48.2961 43.9937 48.7571 42.7842 49.7605 41.8703C50.7367 40.8489 52.0112 40.392 53.557 40.392Z" fill="white"/>
<path fill-rule="evenodd" clip-rule="evenodd" d="M158.123 53.0785C156.686 54.3956 154.788 55.2289 152.483 55.5244H148.225C146.029 55.2557 144.212 54.503 142.774 53.401C140.903 51.8959 139.954 49.88 139.954 47.434C139.954 46.3589 140.225 45.3106 140.686 44.2355C141.174 43.1603 141.825 42.3002 142.639 41.5745C143.561 40.7144 144.781 40.0424 146.245 39.5855C147.71 39.1285 149.255 38.8597 150.801 38.9941C153.811 38.9941 156.306 39.7199 158.177 41.1175C160.048 42.5152 160.997 44.3699 160.997 46.7083C160.997 49.2349 160.075 51.3583 158.123 53.0785ZM145.731 52.3796C144.321 50.8745 143.643 48.8585 143.643 46.4126C143.643 44.3698 144.185 42.7033 145.297 41.5476C146.436 40.4187 147.927 39.8273 149.934 39.8273C151.751 39.8273 153.378 40.3649 154.707 41.3594C155.656 42.0314 156.388 42.9721 156.93 44.1548C157.473 45.3374 157.744 46.5201 157.744 47.7296C157.744 49.8531 157.12 51.5733 155.927 52.8365C154.734 54.0999 153.107 54.7718 151.1 54.7718C148.876 54.6374 147.06 53.9117 145.731 52.3796Z" fill="white"/>
<path d="M92.9062 39.5054C92.9062 39.6398 92.9604 39.7742 93.0961 39.8279C93.2316 39.8817 93.5571 39.9623 94.0451 40.0161C94.8587 40.1505 95.4553 40.3386 95.7807 40.6074C96.1061 40.8762 96.2417 41.4138 96.2417 42.1395V51.5201V52.5953C96.2417 53.2672 96.1061 53.7779 95.9163 54.0467C95.7265 54.3155 95.2383 54.5843 94.5061 54.7725L94.0994 55.0412L94.1536 55.095C94.2079 55.2294 94.3435 55.3638 94.5604 55.3638H102.208C102.804 55.3638 103.157 55.2294 103.157 55.0412C103.157 54.7725 102.886 54.7187 102.425 54.7187C101.692 54.7187 101.096 54.5843 100.608 54.2618C100.147 53.9392 99.8754 53.4553 99.7399 52.864L99.6043 51.6814V41.7094C99.6043 41.0375 99.7399 40.5805 99.8754 40.3924C100.065 40.2042 100.553 39.9892 101.204 39.9355C101.394 39.9355 101.53 39.8817 101.611 39.8011C101.665 39.7473 101.665 39.6667 101.665 39.5323C101.665 39.3441 101.475 39.3441 101.123 39.3441C100.581 39.3441 93.34 39.3441 93.2045 39.2904C92.9604 39.1829 92.9062 39.2366 92.9062 39.5054ZM102.614 39.7204C102.614 39.3979 102.804 39.2635 103.211 39.2635C103.265 39.2635 105.516 39.2635 108.39 39.2366C113.38 39.2097 120.16 39.1829 120.431 39.1829C120.973 39.1829 121.298 39.371 121.298 39.7204L121.353 40.5805C121.353 40.6343 121.38 40.7418 121.407 40.9031C121.434 41.0644 121.461 41.2525 121.488 41.5213C121.488 41.6019 121.515 41.6557 121.515 41.7094C121.57 42.032 121.624 42.2739 121.624 42.5158C121.624 42.7846 121.488 42.919 121.217 42.919C121.027 42.919 120.81 42.7308 120.756 42.462C120.566 41.7363 120.16 41.1988 119.563 40.8762C118.966 40.5537 118.153 40.4193 117.014 40.4193C115.468 40.4193 114.6 40.473 114.194 40.6881C113.868 40.8762 113.651 41.36 113.651 42.0857V50.9288C113.651 52.2459 113.922 53.1866 114.383 53.7241C114.844 54.2618 115.712 54.5843 116.932 54.6649C117.258 54.6649 117.475 54.7993 117.475 55.0681C117.475 55.2562 117.285 55.3368 117.014 55.3368H116.607L108.282 55.3906C107.875 55.4444 107.685 55.4444 107.55 55.4444C107.224 55.4444 107.089 55.31 107.089 55.1218C107.089 54.9337 107.143 54.8531 107.224 54.7993C107.251 54.7993 107.279 54.7993 107.333 54.7725C107.441 54.7455 107.577 54.7187 107.767 54.7187C108.499 54.6649 109.095 54.4499 109.502 54.0467C109.909 53.6435 110.099 53.0522 110.099 52.3803V51.8426V41.4138C110.099 40.8224 109.638 40.473 108.824 40.473C106.872 40.473 105.543 40.6074 104.811 40.7956C104.35 40.9837 103.943 41.1987 103.807 41.3869C103.672 41.5751 103.401 42.1126 103.13 42.9727L102.994 43.2953C102.94 43.6178 102.723 43.7522 102.533 43.7522C102.208 43.7522 102.072 43.6985 102.072 43.4297C102.072 43.2684 102.126 43.0265 102.153 42.7308C102.153 42.6502 102.181 42.5696 102.208 42.4889L102.262 41.4944L102.452 40.4193L102.614 39.7204ZM122.058 43.7791C122.736 42.5964 123.604 41.575 124.742 40.7956C126.559 39.5323 128.756 38.9409 131.251 38.9409C133.068 38.9409 134.668 39.2635 136.023 39.8817L136.972 40.3386C137.162 40.3924 137.379 40.473 137.515 40.473C137.705 40.473 137.922 40.4193 137.976 40.2849L138.301 39.8817C138.328 39.8817 138.356 39.8817 138.383 39.8548C138.437 39.8279 138.491 39.8011 138.572 39.8011C138.898 39.8011 139.033 40.0699 139.033 40.6074L139.305 43.9404C139.359 44.2091 139.359 44.3973 139.359 44.6123C139.359 44.9349 139.223 45.0693 138.952 45.0693C138.762 45.0693 138.681 45.0155 138.627 44.8005C138.572 44.4779 138.301 43.9941 137.813 43.4028C137.352 42.8115 136.864 42.2739 136.484 41.9513C134.749 40.4999 132.878 39.7473 130.79 39.7473C128.973 39.7473 127.427 40.3386 126.288 41.5482C125.149 42.7308 124.553 44.3435 124.553 46.2788C124.553 48.8054 125.502 50.7944 127.373 52.3265C128.783 53.4016 130.329 53.993 132.01 53.993C133.013 53.993 134.017 53.8048 135.156 53.4016C136.295 52.9984 137.162 52.5953 137.759 52.004L138.708 51.1975C138.844 51.0632 138.979 51.0094 139.115 51.0094C139.305 51.0094 139.386 51.0632 139.386 51.2783C139.386 51.6008 138.979 52.0846 138.247 52.8103C136.24 54.6111 133.691 55.525 130.735 55.525C127.915 55.525 125.583 54.7993 123.766 53.321C121.949 51.8696 121.082 49.9343 121.082 47.5959C121.054 46.3057 121.407 44.9617 122.058 43.7791ZM193.947 39.5054C193.947 39.3172 193.758 39.2366 193.404 39.2366H186.896C186.625 39.2366 186.436 39.2366 186.436 39.4248C186.436 39.5592 186.571 39.6935 186.896 39.6935C188.225 39.7473 189.174 40.1505 189.635 40.7687C190.096 41.4407 190.314 42.6233 190.314 44.4779C190.314 45.9563 190.259 47.4346 190.204 49.0204C190.204 49.1548 190.204 49.2623 190.177 49.3967C190.177 49.8536 190.041 50.1225 189.852 50.1225C189.663 50.1225 189.174 49.8536 188.523 49.2623C188.523 49.2623 177.731 39.5054 177.54 39.371C177.351 39.2366 177.133 39.2366 176.808 39.2366C176.673 39.1829 171.846 39.2366 171.846 39.2366C171.628 39.2366 171.466 39.2904 171.384 39.3979V39.7473C171.466 39.8011 171.575 39.8279 171.791 39.8279C174.015 39.9623 175.154 41.2256 175.154 43.6178V48.671L175.1 51.4663C175.1 52.4609 174.964 53.1328 174.639 53.6705C174.314 54.208 173.772 54.5305 173.093 54.6649C172.822 54.7187 172.686 54.8531 172.686 54.9875C172.686 55.1756 172.822 55.2562 173.093 55.2562H179.792C180.063 55.2562 180.252 55.1218 180.252 54.9337C180.252 54.7455 180.117 54.6649 179.845 54.6111C178.246 54.4768 177.296 54.0198 176.971 53.1598C176.645 52.3533 176.51 50.7138 176.51 48.3216V43.806V43.4834C176.51 43.1609 176.645 42.9459 176.836 42.9459C176.889 42.9459 177.107 42.9996 177.296 43.2684L190.639 55.1756C190.692 55.2024 190.72 55.2294 190.747 55.2562C190.802 55.31 190.855 55.3368 190.936 55.3638H191.425C191.506 55.31 191.587 55.2024 191.587 55.095L191.642 43.0802V42.4889C191.642 40.9031 192.238 39.9623 193.514 39.8279C193.54 39.8279 193.595 39.8011 193.622 39.8011C193.839 39.7204 193.947 39.6935 193.947 39.5054ZM193.404 43.4297C193.404 42.1126 193.947 41.0375 195.005 40.1774C195.845 39.5054 196.794 39.1291 197.879 38.9141H200.428C200.807 38.9678 201.187 39.0753 201.568 39.1829L202.571 39.5054C202.978 39.6398 203.303 39.6935 203.519 39.6935C203.655 39.6935 203.791 39.6935 203.926 39.6398L204.469 39.4516C204.604 39.3979 204.658 39.3979 204.74 39.3979C205.01 39.3979 205.065 39.5323 205.065 39.8011C205.065 39.8011 205.472 43.5909 205.472 43.6447C205.472 44.0479 205.336 44.1823 205.065 44.1823C204.876 44.1823 204.74 43.9941 204.658 43.7253C204.387 42.5964 203.655 41.6557 202.516 40.8762C201.377 40.0699 200.156 39.6935 198.909 39.6935C198.042 39.6935 197.31 39.9623 196.632 40.4193C195.953 40.8762 195.628 41.4138 195.628 42.0857C195.628 42.6771 195.9 43.1609 196.496 43.6178C196.903 43.9404 198.042 44.4242 199.994 45.0155C202.353 45.8219 203.873 46.5476 204.632 47.2733C205.499 48.1334 205.96 49.1817 205.96 50.445V50.4987C205.96 51.8964 205.282 53.079 204.089 54.0736C202.815 55.0681 201.405 55.6057 199.723 55.6057C199.045 55.6057 197.987 55.4713 196.496 55.0681C196.089 54.9875 195.791 54.9069 195.52 54.8531C195.33 54.7993 195.168 54.7725 195.032 54.7455C194.57 54.6917 194.299 54.6111 194.218 54.5574C194.11 54.5037 193.323 51.6814 193.079 50.66V49.9611C193.16 49.7999 193.296 49.7192 193.486 49.7192C193.622 49.7192 193.676 49.773 193.758 49.9881C194.218 51.3051 195.032 52.4339 196.252 53.3747C197.473 54.3155 198.665 54.7725 199.94 54.7725C200.943 54.7725 201.81 54.4499 202.624 53.8317C203.356 53.2404 203.763 52.5684 203.763 51.762C203.763 51.1707 203.574 50.6332 203.167 50.2299C202.76 49.8268 202.082 49.4236 201.079 49.1011L198.856 48.2947C196.712 47.569 195.302 46.8432 194.57 46.1713C193.811 45.4187 193.404 44.5586 193.404 43.4297ZM170.599 55.0681C170.599 54.7993 170.327 54.7455 169.866 54.7455C169.134 54.7455 168.538 54.6111 168.049 54.2886C167.588 53.966 167.317 53.4823 167.182 52.891L167.046 51.6814V41.7094C167.046 41.0375 167.127 40.5805 167.317 40.3924C167.507 40.2042 167.995 39.9892 168.646 39.9355C168.836 39.9355 168.971 39.8817 169.053 39.8011C169.107 39.7473 169.107 39.6667 169.107 39.5323C169.107 39.3441 168.836 39.3441 168.51 39.3441C167.968 39.3441 160.809 39.3441 160.592 39.2904C160.538 39.2366 160.402 39.2904 160.402 39.5592C160.402 39.6935 160.456 39.8279 160.592 39.8817C160.728 39.9354 161.053 40.0161 161.541 40.0699C162.355 40.2042 162.951 40.3924 163.277 40.6612C163.602 40.93 163.738 41.4675 163.738 42.1933V51.5739V52.6491C163.738 53.321 163.602 53.8317 163.412 54.1004C163.222 54.3692 162.734 54.6381 162.002 54.8263L161.595 55.095V55.1488C161.623 55.2294 161.704 55.31 161.758 55.3368H170.246C170.491 55.2832 170.599 55.1756 170.599 55.0681Z" fill="white"/>
<path fill-rule="evenodd" clip-rule="evenodd" d="M92.6345 47.8372C93.1769 48.321 93.5023 48.9124 93.6379 49.6112V51.1701C93.4481 52.3259 92.7972 53.2667 91.7668 54.0192C90.4923 54.8794 88.7567 55.3364 86.5601 55.3364H76.2012C76.1198 55.2826 76.0656 55.175 76.0656 55.0676C76.0656 54.8794 76.2012 54.7988 76.4724 54.745C76.6622 54.745 77.5299 54.745 77.9367 54.2881C78.0723 54.073 78.2621 53.6161 78.2621 52.8904V52.8903C78.2621 51.7345 78.2621 49.9337 78.235 48.0522C78.235 46.9438 78.227 45.8195 78.2197 44.7911C78.2136 43.9242 78.2079 43.1254 78.2079 42.4615C78.2079 42.0583 78.1265 41.467 77.8011 41.0638C77.3401 40.3112 76.1198 39.9887 75.7944 39.9887L75.1165 39.9349C74.9267 39.9349 74.791 39.8005 74.791 39.6124C74.791 39.4242 74.9267 39.2898 75.252 39.2898H75.5775C75.5775 39.2898 84.3636 39.2361 85.2314 39.4242C87.2923 39.4242 88.9736 39.5586 90.2482 40.2843C91.5227 41.01 92.1192 41.9508 92.1192 43.1335C92.1192 44.5311 91.3057 45.445 89.7601 45.9826C89.4075 46.117 89.2177 46.2514 89.2177 46.3051C89.1634 46.4395 89.3533 46.5202 89.7601 46.5739C90.9533 46.7083 91.9023 47.1652 92.6345 47.8372ZM81.5158 44.9079C81.5158 45.3648 81.6515 45.7143 81.9227 45.9024C82.248 46.0906 82.7361 46.1712 83.387 46.1712H86.3428C88.024 46.0368 88.8105 45.2304 88.8105 43.779C88.8105 42.5963 88.3495 41.6556 87.4004 40.9299C86.4512 40.2579 85.2581 40.2041 83.7123 40.2041H83.2784C83.2174 40.2041 83.1583 40.2039 83.1011 40.2037L83.1011 40.2037C82.5475 40.2015 82.1659 40.1999 81.8954 40.4192C81.5701 40.688 81.4887 41.3599 81.4887 42.005V44.9079H81.5158ZM81.5971 52.2455C81.5971 52.4653 81.6195 52.6851 81.6438 52.925L81.6513 52.9981C81.7056 54.1271 82.9258 54.4496 85.0139 54.3959C87.102 54.3959 88.5663 53.9927 89.2985 53.1863C89.8951 52.5144 90.2477 51.7349 90.2477 50.7941C90.2477 48.9395 89.2443 47.8106 87.1562 47.4074L87.0136 47.3854C85.8975 47.2129 85.4164 47.1386 84.0105 47.1386C83.3326 47.1386 82.3293 47.1386 81.8683 47.6762C81.5428 48.0794 81.5428 49.1276 81.5428 49.934C81.5157 50.5791 81.5428 51.3316 81.5971 52.2455Z" fill="white"/>
</g>
<defs>
<clipPath id="clip0_2004_283">
<rect width="162.734" height="25.4271" fill="white" transform="translate(43.2266 36.7363)"/>
</clipPath>
</defs>
</svg>
