<svg width="248" height="95" viewBox="0 0 248 95" fill="none" xmlns="http://www.w3.org/2000/svg">
<rect width="247.915" height="94.0804" fill="#0B0B0B"/>
<g clip-path="url(#clip0_2004_244)">
<path d="M76.7211 47.0396L68.0986 55.939H85.3433L76.7211 47.0396Z" fill="white"/>
<path d="M59.4768 47.0396L50.8545 38.1401V55.9391L59.4768 47.0396Z" fill="white"/>
<path d="M76.7211 47.0396L85.3433 38.1401H68.0986L76.7211 47.0396Z" fill="white"/>
<path d="M68.0989 38.1407L76.7212 29.2412H59.4766L68.0989 38.1407Z" fill="white"/>
<path d="M76.7211 64.8394L85.3433 55.9399H68.0986L76.7211 64.8394Z" fill="white"/>
<path d="M59.4768 64.839L68.0992 55.9395H50.8545L59.4768 64.839Z" fill="white"/>
<path d="M76.7211 29.2412L68.0986 38.1407H85.3433L76.7211 29.2412Z" fill="white"/>
<path d="M50.8545 38.1407H68.0992L59.4768 29.2412L50.8545 38.1407Z" fill="white"/>
<path d="M68.0989 55.9399L59.4766 64.8394H76.7212L68.0989 55.9399Z" fill="white"/>
<path d="M59.4768 47.04L50.8545 55.9395H68.0992L59.4768 47.04Z" fill="white"/>
<path d="M68.0992 38.1401H50.8545L59.4768 47.0396L68.0992 38.1401Z" fill="white"/>
<path fill-rule="evenodd" clip-rule="evenodd" d="M95.3571 50.3124C95.8133 50.3124 96.1555 50.1712 96.3836 49.9122C96.6117 49.6532 96.7258 49.2765 96.7258 48.7585H99.8735L99.8964 48.8292C99.9649 49.9828 99.4858 51.1129 98.6418 51.8663C97.7294 52.6668 96.5661 53.0905 95.3571 53.0435C93.6692 53.0435 92.3917 52.502 91.4794 51.4425C90.5442 50.2654 90.0423 48.7821 90.1107 47.2753V47.0398C90.1107 45.3447 90.5669 43.9557 91.4794 42.8726C92.369 41.7896 93.6692 41.2717 95.3343 41.2717C96.7258 41.2717 97.8435 41.6719 98.6875 42.4724C99.5542 43.32 99.9876 44.5443 99.9191 45.7685L99.8964 45.8391H96.7485C96.7714 45.3682 96.6344 44.8974 96.4063 44.5207C96.1783 44.191 95.8362 44.0263 95.3571 44.0263C94.6956 44.0263 94.2394 44.3088 93.9885 44.8503C93.6919 45.5566 93.5551 46.31 93.6007 47.0634V47.2989C93.6007 48.2406 93.7375 48.994 93.9885 49.5355C94.2166 50.0299 94.6956 50.3124 95.3571 50.3124ZM107.561 44.5914H106.306C105.918 44.5914 105.599 44.662 105.348 44.7796C105.097 44.9209 104.915 45.1093 104.801 45.3682V52.8316H101.356V41.46H104.595L104.709 43.1316C104.892 42.5901 105.211 42.1192 105.645 41.7425C106.01 41.4129 106.489 41.2481 106.968 41.2481C107.287 41.2481 107.606 41.2952 107.926 41.3658L107.561 44.5914ZM114.107 47.8168V47.911H114.176L116.001 41.46H119.673L115.271 54.5032C114.928 55.3507 114.495 56.0335 113.948 56.575C113.4 57.1165 112.556 57.3991 111.37 57.3991C111.073 57.3991 110.823 57.3755 110.64 57.3284C110.458 57.3049 110.161 57.2343 109.75 57.1165L110.161 54.5974L110.366 54.6445L110.549 54.668C111.096 54.668 111.484 54.5738 111.735 54.409C111.986 54.2442 112.168 53.9852 112.305 53.6556L112.579 52.9258L108.747 41.4365H112.419L114.107 47.8168ZM127.36 47.1576C127.36 46.2159 127.223 45.4153 126.95 44.8503C126.676 44.2617 126.242 43.9792 125.649 43.9792C125.262 43.9792 124.919 44.0498 124.669 44.191C124.395 44.3323 124.189 44.5443 124.03 44.8267V49.5826C124.189 49.818 124.418 50.0064 124.669 50.1241C124.988 50.2418 125.33 50.3124 125.672 50.2888C126.288 50.2888 126.699 50.0299 126.972 49.512C127.269 48.8292 127.406 48.0993 127.36 47.346V47.1576ZM130.804 47.3695C130.804 49.0882 130.417 50.4537 129.687 51.4896C128.957 52.5255 127.771 53.0905 126.539 53.0435C125.558 53.067 124.646 52.6197 124.053 51.8192V57.1872H120.608V41.46H123.825L123.961 42.7078C124.509 41.7896 125.49 41.2246 126.539 41.2481C127.907 41.2481 128.957 41.7896 129.71 42.8726C130.508 44.1439 130.896 45.6508 130.827 47.1576V47.3695H130.804ZM136.393 38.6348V41.46H138.264V43.9086H136.393V49.1353C136.393 49.5355 136.484 49.818 136.621 50.0064C136.781 50.1947 137.032 50.2888 137.26 50.2888C137.602 50.2888 137.944 50.2653 138.264 50.1947L138.492 52.8316C137.807 52.9964 137.1 53.0905 136.37 53.0905C135.23 53.0905 134.386 52.761 133.793 52.1488C133.199 51.5367 132.903 50.5479 132.903 49.2058V43.9557H131.352V41.5071H132.903V38.6819H136.393V38.6348ZM142.575 47.2518C142.575 48.1935 142.712 48.9469 143.008 49.4884C143.305 50.0299 143.784 50.2888 144.491 50.2888C145.175 50.2888 145.654 50.0299 145.928 49.4649C146.224 48.9234 146.361 48.1699 146.361 47.2282V46.9927C146.384 46.2159 146.247 45.4624 145.928 44.7796C145.631 44.2146 145.152 43.9557 144.445 43.9557C143.761 43.9557 143.282 44.2381 143.008 44.8032C142.712 45.3682 142.575 46.0981 142.575 47.0163V47.2518ZM139.13 47.0398C139.062 45.5095 139.564 44.0263 140.545 42.8726C141.48 41.7896 142.803 41.2481 144.468 41.2481C146.156 41.2481 147.456 41.7896 148.391 42.8726C149.349 44.0263 149.874 45.5095 149.806 47.0398V47.2753C149.806 48.994 149.326 50.383 148.391 51.4425C147.456 52.5255 146.156 53.0435 144.468 53.0435C142.78 53.0435 141.457 52.502 140.522 51.4425C139.564 50.2888 139.062 48.7821 139.13 47.2753V47.0398ZM154.504 41.46L154.641 43.0609C155.006 42.4959 155.44 42.0486 155.987 41.7425C156.535 41.4129 157.128 41.2481 157.744 41.2717C158.839 41.2717 159.682 41.6248 160.276 42.3547C160.891 43.0845 161.188 44.2381 161.188 45.8155V52.8552H157.744V45.7921C157.744 45.1329 157.607 44.6855 157.356 44.403C157.105 44.1439 156.717 44.0028 156.192 44.0028C155.622 43.9792 155.075 44.2381 154.71 44.6855V52.8552H151.288V41.4836H154.504V41.46ZM167.871 43.9792C167.37 43.9792 167.005 44.1439 166.754 44.5207C166.503 44.8738 166.366 45.3682 166.297 45.9804L166.32 46.0275H169.286V45.7685C169.286 45.1799 169.172 44.7561 168.943 44.4501C168.715 44.1205 168.373 43.9792 167.871 43.9792ZM168.122 53.0435C166.48 53.0435 165.202 52.5255 164.222 51.466C163.241 50.4066 162.716 48.9705 162.762 47.5107V47.1105C162.762 45.3682 163.195 43.9557 164.085 42.8726C164.974 41.7896 166.229 41.2246 167.871 41.2481C169.377 41.2481 170.54 41.719 171.384 42.6372C172.274 43.6731 172.73 45.0151 172.662 46.3807V48.2406H166.343L166.32 48.3112C166.412 48.8998 166.617 49.3707 167.027 49.7473C167.415 50.1241 167.917 50.3124 168.579 50.3124C169.628 50.3359 170.677 50.1005 171.635 49.6061L172.456 51.7722C171.886 52.1724 171.247 52.4785 170.586 52.6903C169.81 52.9258 168.989 53.0435 168.122 53.0435ZM183.611 48.0522H183.679L184.865 41.46H188.035L185.435 52.8316H182.516L180.714 46.8044H180.645L178.843 52.8316H175.923L173.323 41.46H176.494L177.703 48.0993H177.771L179.573 41.46H181.74L183.611 48.0522ZM195.015 49.6297C195.015 49.3471 194.856 49.1117 194.559 48.8763C194.034 48.5702 193.465 48.3819 192.872 48.2877C191.822 48.1228 190.818 47.7226 189.952 47.0634C189.291 46.5219 188.949 45.6979 188.972 44.8267C188.972 43.8379 189.427 42.8962 190.203 42.284C191.024 41.6013 192.142 41.2481 193.511 41.2481C194.992 41.2481 196.156 41.5777 197.023 42.2605C197.845 42.8491 198.323 43.8379 198.277 44.8738L198.254 44.9445H194.925C194.925 44.4972 194.811 44.1675 194.582 43.9321C194.354 43.6966 194.011 43.579 193.533 43.579C193.169 43.579 192.872 43.6731 192.621 43.885C192.392 44.0734 192.255 44.3559 192.255 44.662C192.278 44.968 192.415 45.2506 192.667 45.4153C193.192 45.7214 193.784 45.9097 194.377 45.9804C195.45 46.1452 196.475 46.569 197.366 47.2047C198.027 47.7697 198.391 48.6172 198.323 49.512C198.323 50.5243 197.891 51.3719 197 52.0311C195.973 52.7374 194.742 53.0905 193.511 53.02C192.005 53.02 190.818 52.6197 189.952 51.8428C189.085 51.0658 188.652 50.1712 188.697 49.2058L188.72 49.1353H191.845C191.868 49.6768 192.005 50.0535 192.324 50.2888C192.621 50.5243 193.054 50.6421 193.602 50.6421C194.057 50.6421 194.423 50.5479 194.651 50.3595C194.902 50.2418 195.015 49.9593 195.015 49.6297Z" fill="white"/>
</g>
<defs>
<clipPath id="clip0_2004_244">
<rect width="147.477" height="35.598" fill="white" transform="translate(50.8545 29.2412)"/>
</clipPath>
</defs>
</svg>
