<svg width="41" height="39" viewBox="0 0 41 39" fill="none" xmlns="http://www.w3.org/2000/svg">
<path d="M28.7022 31.3307L31.495 31.1354L11.7281 7.3225L8.73109 7.53207L28.7022 31.3307ZM28.5234 3.12672L33.5636 2.77427L23.4706 16.783L37.6742 33.8922L27.5313 34.6014L18.829 24.2312L10.4969 35.7926L5.45367 36.1452L16.2493 21.1613L2.63672 4.93689L13.037 4.20963L20.9102 13.6942L28.5234 3.12672Z" fill="#E9E9E9"/>
<path fill-rule="evenodd" clip-rule="evenodd" d="M27.5315 34.6013L18.8292 24.2311L10.4971 35.7925L5.45384 36.1452L16.2494 21.1612L2.63688 4.93681L13.0372 4.20954L20.9104 13.6941L28.5236 3.12663L33.5638 2.77419L23.4707 16.7829L37.6743 33.8921L27.5315 34.6013ZM11.7282 7.32242L8.73125 7.53199L28.7024 31.3307L31.4951 31.1354L11.7282 7.32242ZM20.7729 9.65744L26.5184 1.68235C26.9478 1.0863 27.6199 0.711938 28.3525 0.660708L33.3927 0.308265C34.3491 0.241388 35.2576 0.733577 35.7237 1.57111C36.1898 2.40865 36.1295 3.44047 35.5689 4.21853L26.5944 16.6747L39.5764 32.3124C40.1686 33.0257 40.3116 34.0107 39.9467 34.8635C39.5818 35.7163 38.7705 36.2933 37.8454 36.358L27.7025 37.0673C26.9135 37.1224 26.146 36.7967 25.6378 36.191L18.9766 28.2531L12.502 37.2371C12.0726 37.833 11.4006 38.2072 10.6681 38.2584L5.62488 38.6111C4.66851 38.678 3.76003 38.1858 3.29391 37.3482C2.8278 36.5107 2.88813 35.4789 3.44871 34.7008L13.1197 21.2778L0.743028 6.52634C0.145654 5.81434 -0.00156324 4.82713 0.362009 3.97129C0.72558 3.11546 1.53845 2.53573 2.46584 2.47088L12.8662 1.74362C13.6598 1.68813 14.4314 2.01801 14.9394 2.62998L20.7729 9.65744Z" fill="#111111"/>
</svg>
