<svg width="97" height="27" viewBox="0 0 97 27" fill="none" xmlns="http://www.w3.org/2000/svg">
<path d="M55.6883 14.1284C55.6883 16.4689 54.9938 18.334 53.6053 19.723C52.0445 21.3775 49.9924 22.2044 47.449 22.2044C45.0145 22.2044 42.9547 21.3616 41.2694 19.6763C39.584 17.9909 38.7412 15.9156 38.7412 13.45C38.7412 10.9844 39.584 8.90905 41.2694 7.22371C42.9547 5.53837 45.0145 4.69556 47.449 4.69556C48.6815 4.69556 49.8444 4.91404 50.9368 5.35073C52.0292 5.78742 52.9264 6.40411 53.6254 7.19994L52.0807 8.74519C51.5657 8.12115 50.8986 7.63295 50.0793 7.28201C49.26 6.93108 48.3823 6.75561 47.4458 6.75561C45.6204 6.75561 44.078 7.38729 42.8112 8.6518C41.5626 9.93101 40.9385 11.5309 40.9385 13.4503C40.9385 15.3697 41.5626 16.9698 42.8112 18.249C44.0752 19.513 45.6201 20.1452 47.4458 20.1452C49.1156 20.1452 50.5044 19.6771 51.6126 18.7406C52.7209 17.8042 53.3602 16.517 53.532 14.8786H47.4458V12.8656H55.5683C55.6445 13.2826 55.6837 13.7056 55.6855 14.1295L55.6883 14.1284ZM60.0863 21.8269H57.9354V10.3601H59.9952V11.9517H60.0886C60.4163 11.3899 60.9195 10.9216 61.5985 10.5471C62.2774 10.1727 62.9518 9.98564 63.6231 9.98564C64.466 9.98564 65.2069 10.1837 65.8468 10.5706C66.4741 10.9467 66.9659 11.5122 67.2511 12.1858C68.2029 10.7189 69.5217 9.98564 71.2076 9.98564C72.5338 9.98564 73.5561 10.3915 74.2741 11.2026C74.9921 12.0137 75.3509 13.1687 75.3509 14.6667V21.8269H73.2V14.995C73.2 13.9181 73.0019 13.1421 72.6148 12.6658C72.2276 12.1895 71.5693 11.952 70.6487 11.952C69.8214 11.952 69.1272 12.3029 68.5657 13.0054C68.0042 13.7078 67.7229 14.5348 67.7229 15.4868V21.8269H65.572V14.995C65.572 13.9181 65.3739 13.1421 64.987 12.6658C64.6001 12.1895 63.9415 11.952 63.0209 11.952C62.1934 11.952 61.4991 12.3029 60.9379 13.0054C60.3767 13.7078 60.0951 14.5348 60.0951 15.4868V21.8269H60.0863ZM82.1127 9.98564C83.7043 9.98564 84.9606 10.411 85.8813 11.2612C86.8019 12.1113 87.2624 13.2785 87.2624 14.7606V21.8269H85.2026V20.2352H85.1092C84.2197 21.5461 83.0336 22.2013 81.5512 22.2013C80.2872 22.2013 79.2299 21.8269 78.3795 21.0778C77.529 20.3286 77.1036 19.3924 77.1036 18.2686C77.1036 17.0799 77.5522 16.1386 78.4496 15.4362C79.3471 14.7337 80.5448 14.3828 82.0428 14.3828C83.322 14.3828 84.3754 14.6169 85.2029 15.0847V14.5931C85.2029 13.8442 84.9063 13.2083 84.3131 12.6856C83.7199 12.1629 83.0254 11.9016 82.2301 11.9016C81.0282 11.9016 80.0792 12.4091 79.3717 13.4234L77.4755 12.2291C78.5207 10.7311 80.0656 9.98196 82.1101 9.98196L82.1127 9.98564ZM79.327 18.3187C79.327 18.8802 79.5647 19.3488 80.041 19.723C80.5173 20.0971 81.074 20.2848 81.7145 20.2848C82.6193 20.2848 83.4267 19.9494 84.1371 19.2781C84.8474 18.6068 85.2023 17.8192 85.2023 16.9138C84.531 16.3834 83.5948 16.118 82.3931 16.118C81.5192 16.118 80.7899 16.3285 80.2046 16.7496C79.6193 17.1708 79.3267 17.6941 79.3267 18.3181L79.327 18.3187ZM92.4828 6.40382C92.4862 6.6042 92.4485 6.80314 92.372 6.98835C92.2954 7.17357 92.1818 7.34113 92.0379 7.48069C91.7413 7.77729 91.3828 7.92502 90.9611 7.92502C90.5394 7.92502 90.1805 7.777 89.8842 7.48069C89.5879 7.18437 89.4399 6.82551 89.4399 6.40382C89.4365 6.20347 89.4742 6.00454 89.5506 5.81933C89.6271 5.63411 89.7407 5.46654 89.8845 5.32696C90.0241 5.18319 90.1916 5.06956 90.3769 4.99309C90.5621 4.91661 90.761 4.87892 90.9614 4.88235C91.1617 4.87892 91.3606 4.91661 91.5459 4.99309C91.7311 5.06956 91.8986 5.18319 92.0382 5.32696C92.3345 5.62412 92.4831 5.98242 92.4831 6.40382H92.4828ZM92.0379 10.3603V21.8269H89.887V10.3601L92.0379 10.3603ZM96.9997 5.07253V21.8269H94.8488V5.07253H96.9997Z" fill="white"/>
<g clip-path="url(#clip0_2004_233)">
<path d="M0 6.97412V24.011C0 26.0036 0.944445 27 2.83333 27H7.74445V6.97412" fill="#4285F4"/>
<path d="M26.2554 6.97412V27H31.1665C33.0554 27 33.9998 26.0036 33.9998 24.011V6.97412" fill="#34A853"/>
<path d="M25.8779 13.4502V2.88927L28.5224 0.797016C30.789 -0.996342 34.0002 0.996278 34.0002 3.78595V6.97414" fill="#FBBC04"/>
<path d="M7.3667 12.8524V2.2915L17 9.96309L26.2556 2.5904V13.1513L17 20.524" fill="#EA4335"/>
<path d="M0 6.97414V3.78595C0 0.896651 3.21111 -0.996337 5.47778 0.79702L7.74445 2.59038V13.1513" fill="#C5221F"/>
</g>
<defs>
<clipPath id="clip0_2004_233">
<rect width="34" height="27" fill="white"/>
</clipPath>
</defs>
</svg>
