<svg width="38" height="38" viewBox="0 0 38 38" fill="none" xmlns="http://www.w3.org/2000/svg">
<circle cx="26.8545" cy="9.36647" r="2.92431" transform="rotate(-2.69489 26.8545 9.36647)" fill="black"/>
<mask id="path-2-outside-1_2002_9" maskUnits="userSpaceOnUse" x="-0.00034103" y="-0.000335276" width="38.0032" height="38.0032" fill="black">
<rect fill="white" x="-0.00034103" y="-0.000335276" width="38.0032" height="38.0032"/>
<path d="M20.4542 4.00116C22.1327 4.00549 22.9846 4.01437 23.7201 4.0352L24.0095 4.04562C24.3437 4.05752 24.6735 4.07242 25.0718 4.09029C26.6593 4.16475 27.7425 4.41532 28.6929 4.78376C29.6776 5.16264 30.5072 5.67582 31.3368 6.50381C32.0958 7.24935 32.6829 8.15157 33.0572 9.14749C33.4258 10.0979 33.6766 11.181 33.7513 12.77C33.7692 13.1669 33.7842 13.4966 33.7961 13.8323L33.8051 14.1218C33.8276 14.8558 33.8366 15.7077 33.8397 17.3862L33.8413 18.4993L33.8415 20.4538C33.8452 21.5421 33.8339 22.6303 33.8074 23.7183L33.7985 24.0077C33.7866 24.3434 33.7717 24.6732 33.7538 25.0701C33.6794 26.659 33.4258 27.7408 33.0589 28.6927C32.6848 29.6887 32.0978 30.591 31.3389 31.3367C30.5934 32.0957 29.6912 32.6829 28.6953 33.0572C27.7449 33.4258 26.6618 33.6765 25.0744 33.7513L24.0121 33.7961L23.7226 33.8051C22.9871 33.826 22.1352 33.8365 20.4567 33.8397L19.3437 33.8413L17.3908 33.8414C16.302 33.8454 15.2133 33.834 14.1249 33.8074L13.8354 33.7985C13.4812 33.7851 13.1271 33.7697 12.7731 33.7523C11.1857 33.6778 10.1025 33.4273 9.15059 33.0588C8.15517 32.6845 7.2534 32.0975 6.50818 31.3388C5.74863 30.5934 5.16096 29.6912 4.78623 28.6951C4.41764 27.7447 4.1669 26.6616 4.09216 25.0726L4.04731 24.0103L4.03983 23.7208C4.01223 22.6329 3.99971 21.5446 4.00225 20.4563L4.00199 17.3888C3.99777 16.3005 4.00862 15.2123 4.03453 14.1243L4.04495 13.8348C4.05686 13.4991 4.07175 13.1694 4.08962 12.7725C4.16408 11.1835 4.41464 10.1018 4.78308 9.1499C5.15851 8.15351 5.74705 7.25115 6.50756 6.50593C7.25221 5.74725 8.15336 5.16011 9.14818 4.78542C10.1 4.41682 11.1817 4.16607 12.7706 4.09134C13.1675 4.0734 13.4987 4.05845 13.8329 4.04649L14.1223 4.03751C15.2102 4.01091 16.2985 3.99937 17.3867 4.00291L20.4542 4.00116ZM18.9211 11.4613C16.9426 11.4615 15.0453 12.2476 13.6464 13.6467C12.2475 15.0459 11.4618 16.9434 11.4619 18.9219C11.4621 20.9004 12.2482 22.7979 13.6473 24.1968C15.0464 25.5957 16.9439 26.3815 18.9224 26.3813C20.9008 26.3811 22.7982 25.595 24.1971 24.1959C25.5959 22.7967 26.3817 20.8992 26.3815 18.9207C26.3814 16.9421 25.5953 15.0447 24.1962 13.6458C22.7971 12.2469 20.8996 11.4611 18.9211 11.4613ZM18.9213 14.4453C19.5091 14.4451 20.0912 14.5608 20.6343 14.7856C21.1774 15.0104 21.6709 15.34 22.0866 15.7555C22.5023 16.171 22.8322 16.6644 23.0572 17.2074C23.2823 17.7504 23.3982 18.3324 23.3984 18.9202C23.3985 19.508 23.2829 20.09 23.0581 20.6331C22.8333 21.1763 22.5037 21.6698 22.0882 22.0855C21.6727 22.5012 21.1793 22.8311 20.6364 23.0561C20.0934 23.2812 19.5114 23.3971 18.9236 23.3973C17.7365 23.3974 16.598 22.9259 15.7586 22.0866C14.9191 21.2472 14.4474 20.1088 14.4473 18.9217C14.4472 17.7346 14.9187 16.596 15.758 15.7566C16.5973 14.9171 17.7358 14.4454 18.9228 14.4453M26.7552 9.22262C26.2606 9.22267 25.7862 9.4192 25.4365 9.76898C25.0868 10.1188 24.8904 10.5932 24.8904 11.0878C24.8904 11.5824 25.087 12.0568 25.4367 12.4065C25.7865 12.7562 26.2609 12.9527 26.7555 12.9526C27.2501 12.9526 27.7245 12.7561 28.0742 12.4063C28.4239 12.0565 28.6203 11.5821 28.6203 11.0875C28.6203 10.5928 28.4237 10.1185 28.074 9.76876C27.7242 9.41903 27.2498 9.22258 26.7552 9.22262Z"/>
</mask>
<path d="M20.4542 4.00116C22.1327 4.00549 22.9846 4.01437 23.7201 4.0352L24.0095 4.04562C24.3437 4.05752 24.6735 4.07242 25.0718 4.09029C26.6593 4.16475 27.7425 4.41532 28.6929 4.78376C29.6776 5.16264 30.5072 5.67582 31.3368 6.50381C32.0958 7.24935 32.6829 8.15157 33.0572 9.14749C33.4258 10.0979 33.6766 11.181 33.7513 12.77C33.7692 13.1669 33.7842 13.4966 33.7961 13.8323L33.8051 14.1218C33.8276 14.8558 33.8366 15.7077 33.8397 17.3862L33.8413 18.4993L33.8415 20.4538C33.8452 21.5421 33.8339 22.6303 33.8074 23.7183L33.7985 24.0077C33.7866 24.3434 33.7717 24.6732 33.7538 25.0701C33.6794 26.659 33.4258 27.7408 33.0589 28.6927C32.6848 29.6887 32.0978 30.591 31.3389 31.3367C30.5934 32.0957 29.6912 32.6829 28.6953 33.0572C27.7449 33.4258 26.6618 33.6765 25.0744 33.7513L24.0121 33.7961L23.7226 33.8051C22.9871 33.826 22.1352 33.8365 20.4567 33.8397L19.3437 33.8413L17.3908 33.8414C16.302 33.8454 15.2133 33.834 14.1249 33.8074L13.8354 33.7985C13.4812 33.7851 13.1271 33.7697 12.7731 33.7523C11.1857 33.6778 10.1025 33.4273 9.15059 33.0588C8.15517 32.6845 7.2534 32.0975 6.50818 31.3388C5.74863 30.5934 5.16096 29.6912 4.78623 28.6951C4.41764 27.7447 4.1669 26.6616 4.09216 25.0726L4.04731 24.0103L4.03983 23.7208C4.01223 22.6329 3.99971 21.5446 4.00225 20.4563L4.00199 17.3888C3.99777 16.3005 4.00862 15.2123 4.03453 14.1243L4.04495 13.8348C4.05686 13.4991 4.07175 13.1694 4.08962 12.7725C4.16408 11.1835 4.41464 10.1018 4.78308 9.1499C5.15851 8.15351 5.74705 7.25115 6.50756 6.50593C7.25221 5.74725 8.15336 5.16011 9.14818 4.78542C10.1 4.41682 11.1817 4.16607 12.7706 4.09134C13.1675 4.0734 13.4987 4.05845 13.8329 4.04649L14.1223 4.03751C15.2102 4.01091 16.2985 3.99937 17.3867 4.00291L20.4542 4.00116ZM18.9211 11.4613C16.9426 11.4615 15.0453 12.2476 13.6464 13.6467C12.2475 15.0459 11.4618 16.9434 11.4619 18.9219C11.4621 20.9004 12.2482 22.7979 13.6473 24.1968C15.0464 25.5957 16.9439 26.3815 18.9224 26.3813C20.9008 26.3811 22.7982 25.595 24.1971 24.1959C25.5959 22.7967 26.3817 20.8992 26.3815 18.9207C26.3814 16.9421 25.5953 15.0447 24.1962 13.6458C22.7971 12.2469 20.8996 11.4611 18.9211 11.4613ZM18.9213 14.4453C19.5091 14.4451 20.0912 14.5608 20.6343 14.7856C21.1774 15.0104 21.6709 15.34 22.0866 15.7555C22.5023 16.171 22.8322 16.6644 23.0572 17.2074C23.2823 17.7504 23.3982 18.3324 23.3984 18.9202C23.3985 19.508 23.2829 20.09 23.0581 20.6331C22.8333 21.1763 22.5037 21.6698 22.0882 22.0855C21.6727 22.5012 21.1793 22.8311 20.6364 23.0561C20.0934 23.2812 19.5114 23.3971 18.9236 23.3973C17.7365 23.3974 16.598 22.9259 15.7586 22.0866C14.9191 21.2472 14.4474 20.1088 14.4473 18.9217C14.4472 17.7346 14.9187 16.596 15.758 15.7566C16.5973 14.9171 17.7358 14.4454 18.9228 14.4453M26.7552 9.22262C26.2606 9.22267 25.7862 9.4192 25.4365 9.76898C25.0868 10.1188 24.8904 10.5932 24.8904 11.0878C24.8904 11.5824 25.087 12.0568 25.4367 12.4065C25.7865 12.7562 26.2609 12.9527 26.7555 12.9526C27.2501 12.9526 27.7245 12.7561 28.0742 12.4063C28.4239 12.0565 28.6203 11.5821 28.6203 11.0875C28.6203 10.5928 28.4237 10.1185 28.074 9.76876C27.7242 9.41903 27.2498 9.22258 26.7552 9.22262Z" fill="#E9E9E9"/>
<path d="M20.4542 4.00116L20.4645 0.00115406L20.4519 0.00116127L20.4542 4.00116ZM23.7201 4.0352L23.864 0.0377874L23.8487 0.037235L23.8333 0.0368005L23.7201 4.0352ZM24.0095 4.04562L23.8656 8.04303L23.8671 8.04308L24.0095 4.04562ZM25.0718 4.09029L25.2593 0.094672L25.2511 0.0943055L25.0718 4.09029ZM28.6929 4.78376L27.247 8.51333L27.2565 8.51696L28.6929 4.78376ZM31.3368 6.50381L28.5111 9.33498L28.5224 9.34627L28.5338 9.35746L31.3368 6.50381ZM33.0572 9.14749L29.3129 10.5547L29.3203 10.5743L29.3279 10.5939L33.0572 9.14749ZM33.7513 12.77L37.7472 12.5894L37.7469 12.5821L33.7513 12.77ZM33.7961 13.8323L37.7942 13.7083L37.7939 13.6991L37.7936 13.6898L33.7961 13.8323ZM33.8051 14.1218L37.8033 13.9995L37.8032 13.9977L33.8051 14.1218ZM33.8397 17.3862L37.8397 17.3805L37.8397 17.3788L33.8397 17.3862ZM33.8413 18.4993L37.8413 18.4989L37.8413 18.4936L33.8413 18.4993ZM33.8415 20.4538L29.8415 20.4541L29.8415 20.4675L33.8415 20.4538ZM33.8074 23.7183L37.8055 23.8415L37.8059 23.8285L37.8063 23.8154L33.8074 23.7183ZM33.7985 24.0077L37.796 24.1495L37.7963 24.1403L37.7966 24.131L33.7985 24.0077ZM33.7538 25.0701L37.7495 25.2573L37.7498 25.25L33.7538 25.0701ZM33.0589 28.6927L29.3266 27.254L29.3204 27.27L29.3144 27.2861L33.0589 28.6927ZM31.3389 31.3367L28.5354 28.4835L28.5101 28.5084L28.4852 28.5338L31.3389 31.3367ZM28.6953 33.0572L27.288 29.3129L27.2684 29.3203L27.2488 29.3279L28.6953 33.0572ZM25.0744 33.7513L25.2431 37.7477L25.2528 37.7473L25.2625 37.7468L25.0744 33.7513ZM24.0121 33.7961L24.1361 37.7942L24.1585 37.7935L24.1808 37.7925L24.0121 33.7961ZM23.7226 33.8051L23.8365 37.8035L23.8467 37.8032L23.7226 33.8051ZM20.4567 33.8397L20.4624 37.8397L20.4642 37.8397L20.4567 33.8397ZM19.3437 33.8413L19.3441 37.8413L19.3494 37.8413L19.3437 33.8413ZM17.3908 33.8414L17.3904 29.8414L17.3763 29.8415L17.3908 33.8414ZM14.1249 33.8074L14.0016 37.8055L14.0143 37.8059L14.027 37.8062L14.1249 33.8074ZM13.8354 33.7985L13.6844 37.7956L13.6983 37.7961L13.7122 37.7966L13.8354 33.7985ZM12.7731 33.7523L12.9694 29.7571L12.9606 29.7567L12.7731 33.7523ZM9.15059 33.0588L10.5944 29.3285L10.5765 29.3216L10.5585 29.3148L9.15059 33.0588ZM6.50818 31.3388L9.36191 28.5359L9.33612 28.5096L9.30986 28.4839L6.50818 31.3388ZM4.78623 28.6951L8.53005 27.2866L8.52291 27.2676L8.51557 27.2487L4.78623 28.6951ZM4.09216 25.0726L0.0957227 25.2413L0.096128 25.2509L0.0965794 25.2605L4.09216 25.0726ZM4.04731 24.0103L0.0486497 24.1137L0.0494946 24.1464L0.0508734 24.179L4.04731 24.0103ZM4.03983 23.7208L0.0411146 23.8223L0.0411654 23.8242L4.03983 23.7208ZM4.00225 20.4563L8.00225 20.4657L8.00225 20.456L4.00225 20.4563ZM4.00199 17.3888L8.00199 17.3884L8.00199 17.3809L8.00196 17.3733L4.00199 17.3888ZM4.03453 14.1243L0.0371237 13.9804L0.0362487 14.0047L0.0356693 14.029L4.03453 14.1243ZM4.04495 13.8348L8.04237 13.9787L8.04244 13.9766L4.04495 13.8348ZM4.08962 12.7725L0.0940002 12.5853L0.0936706 12.5926L4.08962 12.7725ZM4.78308 9.1499L8.51342 10.5937L8.51988 10.577L8.52618 10.5603L4.78308 9.1499ZM6.50756 6.50593L9.30714 9.36291L9.33496 9.33565L9.36224 9.30785L6.50756 6.50593ZM9.14818 4.78542L10.558 8.52873L10.5754 8.52219L10.5927 8.5155L9.14818 4.78542ZM12.7706 4.09134L12.59 0.0954086L12.5827 0.0957529L12.7706 4.09134ZM13.8329 4.04649L13.7089 0.0484075L13.6993 0.0487039L13.6898 0.049046L13.8329 4.04649ZM14.1223 4.03751L14.0245 0.0387036L14.0114 0.0390242L13.9983 0.0394307L14.1223 4.03751ZM17.3867 4.00291L17.3737 8.00289L17.3814 8.00292L17.389 8.00291L17.3867 4.00291ZM18.9211 11.4613L18.9208 7.46129L18.9211 11.4613ZM11.4619 18.9219L7.46193 18.9223L11.4619 18.9219ZM18.9224 26.3813L18.922 22.3813L18.9224 26.3813ZM26.3815 18.9207L22.3815 18.921L26.3815 18.9207ZM18.9236 23.3973L18.9239 27.3973L18.9246 27.3973L18.9236 23.3973ZM20.4439 8.00115C22.12 8.00547 22.9272 8.01435 23.6069 8.0336L23.8333 0.0368005C23.0419 0.0143944 22.1453 0.00551275 20.4645 0.00117395L20.4439 8.00115ZM23.5762 8.03261L23.8656 8.04303L24.1534 0.0482066L23.864 0.0377874L23.5762 8.03261ZM23.8671 8.04308C24.1792 8.0542 24.4892 8.06817 24.8926 8.08627L25.2511 0.0943055C24.8577 0.0766593 24.5083 0.0608484 24.152 0.048154L23.8671 8.04308ZM24.8844 8.08589C26.0982 8.14283 26.7493 8.32035 27.247 8.51331L30.1387 1.0542C28.7356 0.510285 27.2204 0.186674 25.2592 0.0946804L24.8844 8.08589ZM27.2565 8.51696C27.7432 8.70424 28.0936 8.91834 28.5111 9.33498L34.1625 3.67263C32.9207 2.4333 31.612 1.62105 30.1293 1.05056L27.2565 8.51696ZM28.5338 9.35746C28.8775 9.69508 29.1434 10.1037 29.3129 10.5547L36.8015 7.74028C36.2225 6.19947 35.3141 4.80361 34.1398 3.65016L28.5338 9.35746ZM29.3279 10.5939C29.5209 11.0914 29.6986 11.7425 29.7557 12.9579L37.7469 12.5821C37.6546 10.6196 37.3308 9.1043 36.7866 7.70109L29.3279 10.5939ZM29.7554 12.9506C29.7735 13.3518 29.7875 13.6617 29.7987 13.9748L37.7936 13.6898C37.7808 13.3315 37.765 12.9819 37.7472 12.5894L29.7554 12.9506ZM29.7981 13.9563L29.8071 14.2458L37.8032 13.9977L37.7942 13.7083L29.7981 13.9563ZM29.807 14.244C29.8275 14.9157 29.8366 15.7176 29.8397 17.3937L37.8397 17.3788C37.8366 15.6978 37.8276 14.7959 37.8033 13.9995L29.807 14.244ZM29.8397 17.392L29.8413 18.505L37.8413 18.4936L37.8397 17.3805L29.8397 17.392ZM29.8413 18.4996L29.8415 20.4541L37.8415 20.4535L37.8413 18.4989L29.8413 18.4996ZM29.8415 20.4675C29.8451 21.5188 29.8341 22.5702 29.8086 23.6212L37.8063 23.8154C37.8336 22.6905 37.8453 21.5653 37.8415 20.4401L29.8415 20.4675ZM29.8093 23.5951L29.8004 23.8845L37.7966 24.131L37.8055 23.8415L29.8093 23.5951ZM29.801 23.866C29.7899 24.179 29.776 24.4889 29.7579 24.8901L37.7498 25.25C37.7675 24.8575 37.7833 24.5079 37.796 24.1495L29.801 23.866ZM29.7582 24.8828C29.7017 26.0899 29.5233 26.7437 29.3266 27.254L36.7912 30.1314C37.3284 28.7378 37.6571 27.2282 37.7495 25.2573L29.7582 24.8828ZM29.3144 27.2861C29.1449 27.7372 28.8791 28.1458 28.5354 28.4835L34.1424 34.1898C35.3165 33.0362 36.2246 31.6402 36.8034 30.0993L29.3144 27.2861ZM28.4852 28.5338C28.1476 28.8775 27.739 29.1434 27.288 29.3129L30.1026 36.8014C31.6434 36.2223 33.0392 35.3139 34.1926 34.1396L28.4852 28.5338ZM27.2488 29.3279C26.7511 29.5209 26.1 29.6985 24.8862 29.7557L25.2625 37.7468C27.2236 37.6545 28.7388 37.3306 30.1417 36.7865L27.2488 29.3279ZM24.9056 29.7548L23.8434 29.7997L24.1808 37.7925L25.2431 37.7477L24.9056 29.7548ZM23.8881 29.798L23.5986 29.807L23.8467 37.8032L24.1361 37.7942L23.8881 29.798ZM23.6088 29.8067C22.9276 29.8261 22.1183 29.8366 20.4493 29.8397L20.4642 37.8397C22.1521 37.8365 23.0466 37.826 23.8365 37.8035L23.6088 29.8067ZM20.451 29.8397L19.338 29.8413L19.3494 37.8413L20.4624 37.8397L20.451 29.8397ZM19.3434 29.8413L17.3904 29.8414L17.3911 37.8414L19.3441 37.8413L19.3434 29.8413ZM17.3763 29.8415C16.325 29.8452 15.2737 29.8343 14.2227 29.8086L14.027 37.8062C15.1529 37.8337 16.279 37.8455 17.4052 37.8414L17.3763 29.8415ZM14.2481 29.8093L13.9587 29.8004L13.7122 37.7966L14.0016 37.8055L14.2481 29.8093ZM13.9865 29.8013C13.6474 29.7885 13.3083 29.7738 12.9694 29.7571L12.5769 37.7475C12.9459 37.7656 13.3151 37.7817 13.6844 37.7956L13.9865 29.8013ZM12.9606 29.7567C11.7473 29.6998 11.0952 29.5223 10.5944 29.3285L7.70674 36.7891C9.10975 37.3322 10.6241 37.6559 12.5857 37.7479L12.9606 29.7567ZM10.5585 29.3148C10.1077 29.1453 9.69938 28.8795 9.36191 28.5359L3.65446 34.1417C4.80741 35.3155 6.20259 36.2237 7.74267 36.8029L10.5585 29.3148ZM9.30986 28.4839C8.9659 28.1463 8.69976 27.7377 8.53005 27.2866L1.04241 30.1036C1.62216 31.6446 2.53136 33.0405 3.7065 34.1937L9.30986 28.4839ZM8.51557 27.2487C8.3226 26.7512 8.14491 26.1001 8.08775 24.8847L0.0965794 25.2605C0.18888 27.223 0.512674 28.7383 1.0569 30.1415L8.51557 27.2487ZM8.0886 24.9039L8.04375 23.8416L0.0508734 24.179L0.0957227 25.2413L8.0886 24.9039ZM8.04598 23.9069L8.03849 23.6174L0.0411654 23.8242L0.0486497 24.1137L8.04598 23.9069ZM8.03854 23.6194C8.01188 22.5684 7.99978 21.517 8.00224 20.4657L0.00226235 20.447C-0.000369157 21.5722 0.0125831 22.6974 0.0411151 23.8223L8.03854 23.6194ZM8.00225 20.456L8.00199 17.3884L0.0019899 17.3891L0.00225143 20.4567L8.00225 20.456ZM8.00196 17.3733C7.99788 16.3219 8.00836 15.2706 8.0334 14.2196L0.0356693 14.029C0.00887194 15.1539 -0.00234567 16.2791 0.00201999 17.4043L8.00196 17.3733ZM8.03195 14.2682L8.04236 13.9787L0.0475427 13.691L0.0371237 13.9804L8.03195 14.2682ZM8.04244 13.9766C8.05354 13.6636 8.06751 13.3537 8.08557 12.9525L0.0936706 12.5926C0.0759983 12.9851 0.0601775 13.3347 0.0474676 13.6931L8.04244 13.9766ZM8.08524 12.9598C8.14214 11.7455 8.31945 11.0949 8.51342 10.5937L1.05273 7.70611C0.509836 9.10879 0.186027 10.6216 0.0940069 12.5853L8.08524 12.9598ZM8.52618 10.5603C8.6962 10.109 8.96274 9.70039 9.30714 9.36291L3.70798 3.64894C2.53137 4.80191 1.62081 6.19798 1.03997 7.73952L8.52618 10.5603ZM9.36224 9.30785C9.69946 8.96428 10.1075 8.6984 10.558 8.52873L7.73832 1.04212C6.19917 1.62182 4.80496 2.53022 3.65288 3.704L9.36224 9.30785ZM10.5927 8.5155C11.0938 8.32145 11.7443 8.14403 12.9585 8.08692L12.5827 0.0957529C10.6191 0.188112 9.10627 0.512194 7.70369 1.05535L10.5927 8.5155ZM12.9512 8.08726C13.3517 8.06915 13.6638 8.0551 13.976 8.04392L13.6898 0.049046C13.3335 0.0617998 12.9832 0.0776419 12.59 0.0954153L12.9512 8.08726ZM13.9569 8.04456L14.2463 8.03559L13.9983 0.0394307L13.7089 0.0484075L13.9569 8.04456ZM14.2201 8.03631C15.2711 8.01061 16.3224 7.99947 17.3737 8.00289L17.3997 0.0029352C16.2746 -0.000724615 15.1494 0.0111993 14.0245 0.0387036L14.2201 8.03631ZM17.389 8.00291L20.4565 8.00116L20.4519 0.00116127L17.3844 0.00291469L17.389 8.00291ZM18.9208 7.46129C15.8814 7.46155 12.9666 8.66922 10.8177 10.8186L16.4751 16.4749C17.1239 15.826 18.0039 15.4614 18.9214 15.4613L18.9208 7.46129ZM10.8177 10.8186C8.66876 12.9679 7.46167 15.8829 7.46193 18.9223L15.4619 18.9216C15.4618 18.0039 15.8263 17.1238 16.4751 16.4749L10.8177 10.8186ZM7.46193 18.9223C7.46219 21.9616 8.66978 24.8764 10.8191 27.0254L16.4755 21.3681C15.8266 20.7193 15.462 19.8393 15.4619 18.9216L7.46193 18.9223ZM10.8191 27.0254C12.9684 29.1744 15.8833 30.3816 18.9227 30.3813L18.922 22.3813C18.0045 22.3814 17.1244 22.0169 16.4755 21.3681L10.8191 27.0254ZM18.9227 30.3813C21.9621 30.381 24.8768 29.1734 27.0258 27.024L21.3684 21.3677C20.7196 22.0166 19.8396 22.3812 18.922 22.3813L18.9227 30.3813ZM27.0258 27.024C29.1747 24.8746 30.3818 21.9597 30.3815 18.9203L22.3815 18.921C22.3816 19.8387 22.0172 20.7188 21.3684 21.3677L27.0258 27.024ZM30.3815 18.9203C30.3813 15.881 29.1737 12.9662 27.0244 10.8172L21.3679 16.4745C22.0168 17.1233 22.3815 18.0033 22.3815 18.921L30.3815 18.9203ZM27.0244 10.8172C24.8751 8.6682 21.9601 7.46103 18.9208 7.46129L18.9214 15.4613C19.839 15.4612 20.719 15.8256 21.3679 16.4745L27.0244 10.8172ZM18.9224 18.4453C18.9848 18.4453 19.0467 18.4576 19.1044 18.4815L22.1641 11.0897C21.1357 10.664 20.0334 10.445 18.9203 10.4453L18.9224 18.4453ZM19.1044 18.4815C19.1622 18.5054 19.2146 18.5404 19.2589 18.5846L24.9144 12.9264C24.1271 12.1395 23.1926 11.5154 22.1641 11.0897L19.1044 18.4815ZM19.2589 18.5846C19.3031 18.6288 19.3381 18.6812 19.3621 18.739L26.7524 15.6757C26.3262 14.6475 25.7016 13.7133 24.9144 12.9264L19.2589 18.5846ZM19.3621 18.739C19.386 18.7967 19.3983 18.8586 19.3984 18.9212L27.3984 18.9192C27.3981 17.8061 27.1786 16.704 26.7524 15.6757L19.3621 18.739ZM19.3984 18.9212C19.3984 18.9837 19.3861 19.0456 19.3622 19.1034L26.754 22.1629C27.1797 21.1344 27.3986 20.0322 27.3984 18.9192L19.3984 18.9212ZM19.3622 19.1034C19.3383 19.1611 19.3032 19.2136 19.259 19.2578L24.9174 24.9132C25.7042 24.1259 26.3283 23.1914 26.754 22.1629L19.3622 19.1034ZM19.259 19.2578C19.2148 19.302 19.1624 19.3371 19.1047 19.361L22.1681 26.7513C23.1963 26.325 24.1305 25.7005 24.9174 24.9132L19.259 19.2578ZM19.1047 19.361C19.0469 19.385 18.9851 19.3973 18.9226 19.3973L18.9246 27.3973C20.0377 27.397 21.1398 27.1775 22.1681 26.7513L19.1047 19.361ZM18.9233 19.3973C18.7971 19.3973 18.676 19.3472 18.5868 19.2579L12.9303 24.9152C14.52 26.5046 16.676 27.3975 18.9239 27.3973L18.9233 19.3973ZM18.5868 19.2579C18.4975 19.1687 18.4474 19.0476 18.4473 18.9213L10.4473 18.922C10.4475 21.17 11.3407 23.3258 12.9303 24.9152L18.5868 19.2579ZM18.4473 18.9213C18.4473 18.7951 18.4975 18.674 18.5867 18.5847L12.9293 12.9284C11.3399 14.5181 10.4472 16.6741 10.4473 18.922L18.4473 18.9213ZM18.5867 18.5847C18.676 18.4954 18.797 18.4453 18.9232 18.4453L18.9225 10.4453C16.6745 10.4455 14.5187 11.3387 12.9293 12.9284L18.5867 18.5847ZM26.7549 5.22262C25.1993 5.22276 23.7076 5.84083 22.6078 6.94083L28.2652 12.5971C27.8649 12.9976 27.3218 13.2226 26.7555 13.2226L26.7549 5.22262ZM22.6078 6.94083C21.508 8.04084 20.8903 9.53267 20.8904 11.0881L28.8904 11.0874C28.8904 11.6536 28.6656 12.1967 28.2652 12.5971L22.6078 6.94083ZM20.8904 11.0881C20.8905 12.6436 21.5085 14.1353 22.6085 15.2351L28.265 9.57786C28.6654 9.97823 28.8904 10.5212 28.8904 11.0874L20.8904 11.0881ZM22.6085 15.2351C23.7085 16.3349 25.2003 16.9528 26.7559 16.9526L26.7552 8.95262C27.3215 8.95258 27.8645 9.17749 28.265 9.57786L22.6085 15.2351ZM26.7559 16.9526C28.3114 16.9525 29.8031 16.3344 30.9029 15.2344L25.2455 9.57812C25.6458 9.17768 26.1889 8.95267 26.7552 8.95262L26.7559 16.9526ZM30.9029 15.2344C32.0027 14.1344 32.6204 12.6426 32.6203 11.0871L24.6203 11.0878C24.6203 10.5216 24.8451 9.97856 25.2455 9.57812L30.9029 15.2344ZM32.6203 11.0871C32.6202 9.53168 32.0022 8.03995 30.9022 6.94013L25.2457 12.5974C24.8453 12.197 24.6204 11.654 24.6203 11.0878L32.6203 11.0871ZM30.9022 6.94013C29.8022 5.8403 28.3104 5.22249 26.7549 5.22262L26.7555 13.2226C26.1893 13.2227 25.6462 12.9978 25.2457 12.5974L30.9022 6.94013Z" fill="black" mask="url(#path-2-outside-1_2002_9)"/>
</svg>
