<svg width="248" height="95" viewBox="0 0 248 95" fill="none" xmlns="http://www.w3.org/2000/svg">
<rect width="247.915" height="94.0804" transform="translate(0.0849609 0.567871)" fill="#0B0B0B"/>
<g clip-path="url(#clip0_2004_258)">
<path d="M72.1637 55.1251L66.0718 57.6896V57.4307C64.9021 57.7131 63.5863 57.8777 62.3679 57.9483C56.6171 57.9012 52.0847 54.9839 52.0116 51.549V50.2786C53.8879 52.9136 57.738 54.7016 62.3679 54.6311C63.9274 54.7016 65.5356 54.4663 66.8759 54.1135L67.412 52.843C65.8281 53.3135 64.0736 53.6193 62.3679 53.6193C56.6171 53.6193 52.0847 50.7256 52.0116 47.2201V46.1849C53.8879 48.6316 57.738 50.3962 62.3679 50.2786C64.4635 50.3962 66.486 49.9727 68.2162 49.2434L68.4842 47.973C66.8028 48.8199 64.6341 49.314 62.3923 49.2434C56.6415 49.314 52.1091 46.4201 52.036 42.8441V41.8089C53.9123 44.3028 57.7624 46.0908 62.3923 46.1614C65.0239 46.0908 67.5094 45.4085 69.5563 44.3734L69.8244 42.8441C67.9725 44.1616 65.2676 45.0321 62.3923 45.1498C56.6415 45.0321 52.1091 42.1148 52.036 38.4916C52.0847 35.0332 56.6415 32.1394 62.3923 32.0923C65.8038 32.1394 68.9959 33.2922 70.8722 35.1744L71.0672 35.4802H72.4073L72.2124 35.1744C70.3362 32.704 66.5591 31.0807 62.3923 31.0807C56.0079 31.0572 50.9395 34.4215 50.9395 38.4681V38.7269V51.7842C51.1588 55.7368 56.1054 58.9599 62.3435 58.9599C66.4617 58.9834 70.19 57.4072 72.1637 55.1251Z" fill="white"/>
<path d="M69.6791 64.1359L71.8235 55.3368L65.6584 57.9248L69.4111 42.6794H62.1982L64.0745 35.1743H87.102L85.2257 42.6794H77.7204L76.1121 46.8201L84.4216 43.4557L69.6791 64.1359ZM73.4317 53.5488L72.3596 58.7246L81.2051 45.8085L73.9679 48.9139L77.1844 41.6677H84.4216L85.7617 36.233H64.8543L63.5141 41.6677H70.7513L67.2667 56.1367L73.4317 53.5488Z" fill="white"/>
<path d="M102.38 40.2326C102.404 41.056 102.136 41.6912 101.6 42.1618C101.064 42.6323 100.333 42.8676 99.3826 42.8676C98.4322 42.8676 97.6525 42.5617 97.0677 41.9736C96.4828 41.3854 96.1904 40.609 96.1904 39.6679V38.1387C96.1904 37.1976 96.4828 36.4212 97.0433 35.8331C97.6281 35.2449 98.3835 34.9391 99.3094 34.9391C100.284 34.9391 101.04 35.1743 101.6 35.6213C102.16 36.0919 102.428 36.7271 102.404 37.5505V37.574H100.845C100.845 37.08 100.723 36.7036 100.479 36.4683C100.235 36.233 99.8456 36.1154 99.3339 36.1154C98.8464 36.1154 98.4809 36.3036 98.2129 36.68C97.9449 37.0565 97.7987 37.527 97.7987 38.1152V39.6679C97.7987 40.2561 97.9449 40.7502 98.2129 41.1266C98.5053 41.503 98.8952 41.6912 99.407 41.6912C99.8943 41.6912 100.235 41.5736 100.479 41.3383C100.723 41.1031 100.845 40.7266 100.845 40.2326H102.38ZM111.201 39.5974C111.201 40.5384 110.884 41.3383 110.275 41.95C109.666 42.5617 108.862 42.8676 107.863 42.8676C106.863 42.8676 106.084 42.5617 105.45 41.95C104.841 41.3383 104.524 40.5384 104.524 39.5974V38.2093C104.524 37.2682 104.841 36.4918 105.45 35.8566C106.059 35.2449 106.863 34.9155 107.838 34.9155C108.837 34.9155 109.641 35.2214 110.25 35.8566C110.884 36.4683 111.177 37.2682 111.177 38.2093V39.5974H111.201ZM109.593 38.1857C109.593 37.5741 109.446 37.1035 109.13 36.7036C108.813 36.3271 108.399 36.1154 107.838 36.1154C107.302 36.1154 106.863 36.3036 106.571 36.7036C106.279 37.08 106.108 37.5741 106.108 38.1857V39.5738C106.108 40.1855 106.254 40.6796 106.571 41.0795C106.863 41.456 107.302 41.6677 107.838 41.6677C108.399 41.6677 108.813 41.4795 109.13 41.0795C109.446 40.7031 109.593 40.1855 109.593 39.5738V38.1857ZM115.343 42.7499H113.735V35.0332H115.343V42.7499ZM124.579 42.7499H122.97L119.754 37.5505H119.73V42.7499H118.121V35.0332H119.73L122.946 40.2326H122.97V35.0332H124.579V42.7499ZM132.644 36.233H130.354V42.7499H128.746V36.233H126.504V35.0332H132.644V36.233ZM139.272 39.3621H136.3V41.5736H139.833V42.7499H134.716V35.0332H139.833V36.233H136.324V38.1622H139.297V39.3621H139.272ZM143.732 41.5736H147.314V42.7499H142.123V35.0332H143.732V41.5736ZM154.137 39.3621H151.164V41.5736H154.697V42.7499H149.58V35.0332H154.697V36.233H151.188V38.1622H154.161V39.3621H154.137ZM163.128 41.7148C162.885 42.0206 162.519 42.303 162.007 42.5382C161.52 42.7735 160.887 42.8911 160.107 42.8911C159.132 42.8911 158.352 42.6088 157.743 42.0206C157.134 41.4325 156.817 40.6796 156.817 39.7385V38.1152C156.817 37.1741 157.11 36.4212 157.719 35.8331C158.304 35.2449 159.083 34.9391 160.009 34.9391C160.984 34.9391 161.739 35.1743 162.251 35.6213C162.763 36.0683 163.031 36.6565 163.007 37.4094V37.4329H161.496C161.496 37.0329 161.374 36.7036 161.13 36.4683C160.887 36.233 160.521 36.1154 160.058 36.1154C159.571 36.1154 159.181 36.3036 158.864 36.6565C158.572 37.0329 158.425 37.5035 158.425 38.0681V39.6915C158.425 40.2796 158.572 40.7502 158.888 41.1266C159.205 41.503 159.619 41.6677 160.131 41.6677C160.521 41.6677 160.813 41.6207 161.033 41.5501C161.252 41.4795 161.423 41.3854 161.545 41.2678V39.7621H160.009V38.6798H163.153V41.7148H163.128ZM167.271 39.6679V42.7499H165.663V35.0332H168.44C169.342 35.0332 170.073 35.2449 170.585 35.6449C171.097 36.0448 171.365 36.6095 171.365 37.3153C171.365 37.7152 171.267 38.0446 171.048 38.3504C170.829 38.6328 170.512 38.868 170.098 39.0562C170.56 39.1974 170.902 39.4092 171.121 39.7385C171.316 40.0444 171.438 40.4443 171.438 40.9149V41.4795C171.438 41.6912 171.462 41.9265 171.535 42.1618C171.584 42.3971 171.706 42.5617 171.852 42.6794V42.797H170.195C170.049 42.6794 169.951 42.4912 169.903 42.2324C169.854 41.9736 169.829 41.7148 169.829 41.4795V40.9384C169.829 40.562 169.732 40.2561 169.513 40.0444C169.293 39.8326 168.977 39.715 168.587 39.715H167.271V39.6679ZM167.271 38.4916H168.416C168.855 38.4916 169.196 38.3975 169.415 38.2093C169.635 38.0211 169.756 37.7623 169.756 37.3858C169.756 37.0329 169.635 36.7506 169.415 36.5389C169.196 36.3271 168.879 36.233 168.44 36.233H167.271V38.4916ZM178.163 41.1031H175.58L175.044 42.7735H173.363L176.068 35.0567H177.7L180.381 42.7735H178.699L178.163 41.1031ZM175.97 39.8797H177.773L176.896 37.1506H176.872L175.97 39.8797ZM183.938 39.9503V42.7499H182.33V35.0332H185.401C186.326 35.0332 187.033 35.2684 187.569 35.7154C188.105 36.1624 188.349 36.7741 188.349 37.5035C188.349 38.2328 188.081 38.8445 187.569 39.2915C187.033 39.7385 186.326 39.9738 185.401 39.9738H183.938V39.9503ZM183.938 38.7739H185.401C185.839 38.7739 186.18 38.6563 186.424 38.421C186.643 38.1857 186.765 37.8799 186.765 37.527C186.765 37.1506 186.643 36.8447 186.424 36.6095C186.204 36.3742 185.863 36.2566 185.401 36.2566H183.938V38.7739ZM197.145 42.7499H195.537V39.5503H192.272V42.7499H190.664V35.0332H192.272V38.3504H195.537V35.0332H197.145V42.7499Z" fill="white"/>
<path d="M99.1147 55.3599H98.1157V50.2782H96.3125V49.4547H100.918V50.2782H99.1147V55.3599ZM105.816 55.3599H104.817V52.6073C104.817 52.2544 104.744 51.9955 104.597 51.8309C104.451 51.6663 104.232 51.5722 103.915 51.5722C103.501 51.5722 103.208 51.6898 103.014 51.925C102.819 52.1603 102.721 52.5603 102.721 53.1249V55.3364H101.746V49.0548H102.721V50.6545C102.721 50.9134 102.697 51.1722 102.672 51.478H102.746C102.867 51.2663 103.062 51.1015 103.306 50.9839C103.55 50.8663 103.818 50.7958 104.135 50.7958C105.255 50.7958 105.816 51.3369 105.816 52.4426V55.3599ZM109.203 55.4305C108.472 55.4305 107.911 55.2188 107.522 54.8188C107.107 54.4189 106.912 53.8543 106.912 53.1484C106.912 52.419 107.107 51.8544 107.473 51.4309C107.838 51.0074 108.374 50.7958 109.032 50.7958C109.642 50.7958 110.129 50.9839 110.47 51.3369C110.836 51.6898 111.006 52.1838 111.006 52.819V53.3366H107.911C107.936 53.7601 108.058 54.113 108.277 54.3248C108.496 54.56 108.837 54.6777 109.252 54.6777C109.52 54.6777 109.788 54.6541 110.007 54.607C110.251 54.56 110.494 54.4659 110.762 54.3483V55.1246C110.519 55.2423 110.275 55.3129 110.031 55.3599C109.812 55.407 109.52 55.4305 109.203 55.4305ZM109.032 51.525C108.716 51.525 108.472 51.6192 108.277 51.8074C108.082 51.9955 107.985 52.2779 107.936 52.6544H110.031C110.031 52.2779 109.934 51.9955 109.763 51.8074C109.593 51.6192 109.349 51.525 109.032 51.525ZM116.659 51.5957H115.539V55.3599H114.539V51.5957H113.784V51.1487L114.539 50.8663V50.584C114.539 50.0664 114.661 49.6664 114.929 49.4077C115.197 49.1489 115.587 49.0312 116.099 49.0312C116.44 49.0312 116.781 49.0783 117.122 49.1959L116.854 49.9253C116.611 49.8547 116.391 49.8077 116.148 49.8077C115.928 49.8077 115.758 49.8782 115.66 49.9958C115.563 50.1369 115.514 50.3252 115.514 50.584V50.8663H116.635V51.5957H116.659ZM120.729 55.3599L120.583 54.7718H120.534C120.388 54.9835 120.193 55.1483 119.949 55.2659C119.705 55.3835 119.413 55.454 119.096 55.454C118.536 55.454 118.121 55.3129 117.829 55.054C117.537 54.7953 117.415 54.3718 117.415 53.8308V50.8898H118.414V53.6425C118.414 53.9954 118.487 54.2306 118.633 54.4189C118.779 54.5835 118.999 54.6777 119.316 54.6777C119.73 54.6777 120.022 54.56 120.217 54.3248C120.412 54.0895 120.51 53.6895 120.51 53.1249V50.8898H121.509V55.3599H120.729ZM124.628 54.6541C124.871 54.6541 125.115 54.607 125.359 54.5365V55.2423C125.261 55.2894 125.115 55.3364 124.944 55.3599C124.774 55.3835 124.603 55.407 124.408 55.407C123.482 55.407 123.019 54.9364 123.019 53.9954V51.5957H122.386V51.1722L123.068 50.8193L123.409 49.8782H124.019V50.8663H125.334V51.5957H124.019V53.9954C124.019 54.2307 124.067 54.3954 124.189 54.513C124.262 54.607 124.433 54.6541 124.628 54.6541ZM129.526 55.3599L129.379 54.7718H129.331C129.184 54.9835 128.99 55.1483 128.746 55.2659C128.502 55.3835 128.21 55.454 127.893 55.454C127.332 55.454 126.918 55.3129 126.626 55.054C126.358 54.7953 126.212 54.3718 126.212 53.8308V50.8898H127.211V53.6425C127.211 53.9954 127.284 54.2306 127.43 54.4189C127.576 54.5835 127.795 54.6777 128.112 54.6777C128.527 54.6777 128.819 54.56 129.014 54.3248C129.209 54.0895 129.306 53.6895 129.306 53.1249V50.8898H130.305V55.3599H129.526ZM134.058 50.7958C134.253 50.7958 134.423 50.8193 134.545 50.8428L134.448 51.7368C134.302 51.7133 134.155 51.6898 134.009 51.6898C133.619 51.6898 133.303 51.8074 133.059 52.0662C132.815 52.325 132.693 52.6308 132.693 53.0308V55.3599H131.719V50.8898H132.498L132.62 51.6663H132.669C132.815 51.4074 133.034 51.1957 133.278 51.031C133.498 50.8898 133.766 50.7958 134.058 50.7958ZM137.25 55.4305C136.519 55.4305 135.959 55.2188 135.569 54.8188C135.154 54.4189 134.96 53.8543 134.96 53.1484C134.96 52.419 135.154 51.8544 135.52 51.4309C135.886 51.0074 136.422 50.7958 137.08 50.7958C137.689 50.7958 138.176 50.9839 138.517 51.3369C138.883 51.6898 139.053 52.1838 139.053 52.819V53.3366H135.959C135.983 53.7601 136.105 54.113 136.324 54.3248C136.543 54.56 136.885 54.6777 137.299 54.6777C137.567 54.6777 137.835 54.6541 138.054 54.607C138.298 54.56 138.542 54.4659 138.81 54.3483V55.1246C138.566 55.2423 138.322 55.3129 138.079 55.3599C137.835 55.407 137.567 55.4305 137.25 55.4305ZM137.08 51.525C136.763 51.525 136.519 51.6192 136.324 51.8074C136.129 51.9955 136.032 52.2779 135.983 52.6544H138.079C138.079 52.2779 137.981 51.9955 137.811 51.8074C137.616 51.6192 137.372 51.525 137.08 51.525ZM146.485 53.1014C146.485 53.8308 146.291 54.3954 145.901 54.8188C145.511 55.2188 144.975 55.4305 144.292 55.4305C143.854 55.4305 143.488 55.3364 143.147 55.1483C142.806 54.96 142.562 54.6777 142.392 54.3248C142.221 53.9719 142.124 53.5719 142.124 53.1014C142.124 52.372 142.319 51.8074 142.709 51.4074C143.098 51.0074 143.634 50.7958 144.341 50.7958C144.999 50.7958 145.535 51.0074 145.925 51.4309C146.315 51.8544 146.485 52.3955 146.485 53.1014ZM143.123 53.1014C143.123 54.1365 143.513 54.6541 144.317 54.6541C145.096 54.6541 145.486 54.1365 145.486 53.1014C145.486 52.0898 145.096 51.5722 144.317 51.5722C143.903 51.5722 143.61 51.7133 143.415 51.972C143.22 52.2309 143.123 52.6073 143.123 53.1014ZM149.946 51.5957H148.825V55.3599H147.826V51.5957H147.07V51.1487L147.826 50.8663V50.584C147.826 50.0664 147.948 49.6664 148.216 49.4077C148.484 49.1489 148.874 49.0312 149.385 49.0312C149.726 49.0312 150.068 49.0783 150.409 49.1959L150.141 49.9253C149.897 49.8547 149.678 49.8077 149.434 49.8077C149.215 49.8077 149.044 49.8782 148.947 49.9958C148.849 50.1134 148.8 50.3252 148.8 50.584V50.8663H149.921V51.5957H149.946ZM156.866 55.3599H155.867V52.6073C155.867 52.2544 155.794 52.0192 155.672 51.8309C155.55 51.6663 155.331 51.5722 155.039 51.5722C154.649 51.5722 154.381 51.6898 154.21 51.925C154.039 52.1603 153.942 52.5603 153.942 53.1249V55.3599H152.967V50.8898H153.747L153.893 51.478H153.942C154.064 51.2663 154.259 51.1015 154.503 50.9839C154.746 50.8663 155.014 50.8193 155.307 50.8193C156.013 50.8193 156.501 51.0545 156.72 51.525H156.793C156.939 51.3133 157.134 51.1252 157.378 51.0074C157.622 50.8898 157.914 50.8193 158.231 50.8193C158.791 50.8193 159.181 50.9604 159.449 51.2193C159.693 51.478 159.839 51.9015 159.839 52.4426V55.3599H158.864V52.6073C158.864 52.2544 158.791 52.0192 158.669 51.8309C158.523 51.6663 158.328 51.5722 158.036 51.5722C157.646 51.5722 157.378 51.6898 157.207 51.925C157.037 52.1603 156.939 52.5132 156.939 52.9838V55.3599H156.866ZM165.249 53.1014C165.249 53.8308 165.054 54.3954 164.664 54.8188C164.274 55.2188 163.738 55.4305 163.056 55.4305C162.617 55.4305 162.251 55.3364 161.91 55.1483C161.569 54.96 161.325 54.6777 161.155 54.3248C160.984 53.9719 160.887 53.5719 160.887 53.1014C160.887 52.372 161.082 51.8074 161.472 51.4074C161.861 51.0074 162.398 50.7958 163.104 50.7958C163.762 50.7958 164.298 51.0074 164.688 51.4309C165.054 51.8544 165.249 52.3955 165.249 53.1014ZM161.886 53.1014C161.886 54.1365 162.276 54.6541 163.08 54.6541C163.86 54.6541 164.249 54.1365 164.249 53.1014C164.249 52.0898 163.86 51.5722 163.08 51.5722C162.666 51.5722 162.373 51.7133 162.178 51.972C161.983 52.2309 161.886 52.6073 161.886 53.1014ZM170.463 55.3599H169.464V52.6073C169.464 52.2544 169.391 51.9955 169.245 51.8309C169.099 51.6663 168.879 51.5722 168.563 51.5722C168.148 51.5722 167.832 51.6898 167.661 51.925C167.49 52.1603 167.369 52.5603 167.369 53.1249V55.3599H166.394V50.8898H167.174L167.32 51.478H167.369C167.515 51.2663 167.71 51.1015 167.953 50.9839C168.197 50.8663 168.489 50.8193 168.806 50.8193C169.927 50.8193 170.463 51.3604 170.463 52.4662V55.3599ZM173.85 55.4305C173.119 55.4305 172.559 55.2188 172.169 54.8188C171.755 54.4189 171.56 53.8543 171.56 53.1484C171.56 52.419 171.755 51.8544 172.12 51.4309C172.486 51.0074 173.022 50.7958 173.68 50.7958C174.289 50.7958 174.776 50.9839 175.118 51.3369C175.483 51.6898 175.654 52.1838 175.654 52.819V53.3366H172.559C172.583 53.7601 172.705 54.113 172.924 54.3248C173.144 54.56 173.485 54.6777 173.899 54.6777C174.167 54.6777 174.435 54.6541 174.655 54.607C174.874 54.56 175.142 54.4659 175.41 54.3483V55.1246C175.166 55.2423 174.923 55.3129 174.679 55.3599C174.435 55.407 174.167 55.4305 173.85 55.4305ZM173.655 51.525C173.339 51.525 173.095 51.6192 172.9 51.8074C172.705 51.9955 172.608 52.2779 172.559 52.6544H174.655C174.655 52.2779 174.557 51.9955 174.387 51.8074C174.216 51.6192 173.972 51.525 173.655 51.525ZM175.897 50.8898H176.969L177.92 53.4308C178.066 53.7836 178.163 54.1365 178.213 54.4424H178.237C178.261 54.3013 178.309 54.113 178.383 53.9013C178.455 53.6895 178.797 52.6779 179.455 50.8898H180.527L178.553 55.9481C178.187 56.8656 177.603 57.3361 176.75 57.3361C176.531 57.3361 176.311 57.3126 176.117 57.2656V56.5128C176.263 56.5363 176.433 56.5598 176.628 56.5598C177.091 56.5598 177.432 56.301 177.627 55.7599L177.798 55.3364L175.897 50.8898Z" fill="white"/>
</g>
<defs>
<clipPath id="clip0_2004_258">
<rect width="146.206" height="33.0553" fill="white" transform="translate(50.9395 31.0806)"/>
</clipPath>
</defs>
</svg>
