<svg width="141" height="29" viewBox="0 0 141 29" fill="none" xmlns="http://www.w3.org/2000/svg">
<g clip-path="url(#clip0_2004_208)">
<g clip-path="url(#clip1_2004_208)">
<path fill-rule="evenodd" clip-rule="evenodd" d="M12.499 2.30786C5.59725 2.30786 0 7.90437 0 14.8084C0 20.3305 3.58135 25.016 8.54857 26.6697C9.17398 26.7842 9.4019 26.3981 9.4019 26.0666C9.4019 25.7696 9.39102 24.9838 9.3845 23.9409C5.90751 24.696 5.17391 22.265 5.17391 22.265C4.60528 20.8208 3.78572 20.4364 3.78572 20.4364C2.65077 19.6613 3.87164 19.6766 3.87164 19.6766C5.12629 19.7649 5.78624 20.9651 5.78624 20.9651C6.90124 22.875 8.71224 22.3234 9.42437 22.0034C9.53791 21.1961 9.861 20.6451 10.2178 20.3328C7.44225 20.0166 4.52391 18.9446 4.52391 14.1546C4.52391 12.7895 5.0112 11.6745 5.8108 10.8004C5.68181 10.4843 5.25291 9.21346 5.9337 7.49224C5.9337 7.49224 6.98269 7.15616 9.37077 8.77303C10.3676 8.49599 11.4373 8.35787 12.5001 8.3525C13.5622 8.35685 14.6311 8.49606 15.6295 8.77303C18.016 7.15616 19.0635 7.49224 19.0635 7.49224C19.7457 9.21346 19.3167 10.4843 19.1885 10.8004C19.9897 11.6745 20.4731 12.7895 20.4731 14.1546C20.4731 18.9569 17.5502 20.0135 14.7662 20.3227C15.2143 20.7087 15.6141 21.4716 15.6141 22.638C15.6141 24.3085 15.5989 25.6568 15.5989 26.0666C15.5989 26.4012 15.8245 26.7903 16.4583 26.6682C21.4217 25.0115 25 20.3297 25 14.8084C25 7.90437 19.4031 2.30786 12.499 2.30786Z" fill="white"/>
</g>
<path d="M53.8187 12.3999H44.7356C44.5013 12.3999 44.3111 12.5883 44.3111 12.82V17.2124C44.3111 17.4442 44.5013 17.6327 44.7356 17.6327H48.279V23.0899C48.279 23.0899 47.4833 23.3582 45.2837 23.3582C42.6886 23.3582 39.0633 22.4203 39.0633 14.5357C39.0633 6.64932 42.8382 5.61171 46.3823 5.61171C49.45 5.61171 50.7717 6.14599 51.6125 6.40333C51.8768 6.48347 52.1212 6.22323 52.1212 5.99127L53.1345 1.74732C53.1345 1.63891 53.0974 1.50823 52.9722 1.41941C52.6308 1.17854 50.5473 0.0253906 45.2837 0.0253906C39.2199 0.0253906 33 2.57701 33 14.8431C33 27.1097 40.1214 28.9376 46.1223 28.9376C51.091 28.9376 54.1052 26.8374 54.1052 26.8374C54.2295 26.7696 54.243 26.5979 54.243 26.5191V12.82C54.243 12.5883 54.053 12.3999 53.8187 12.3999ZM100.605 1.56077C100.605 1.32702 100.417 1.13847 100.183 1.13847H95.0686C94.835 1.13847 94.645 1.32702 94.645 1.56077C94.645 1.56188 94.6463 11.3365 94.6463 11.3365H86.6744V1.56077C86.6744 1.32702 86.4863 1.13847 86.2524 1.13847H81.1383C80.9055 1.13847 80.7158 1.32702 80.7158 1.56077V28.0304C80.7158 28.264 80.9055 28.4541 81.1383 28.4541H86.2524C86.4863 28.4541 86.6744 28.264 86.6744 28.0304V16.7084H94.6463C94.6463 16.7084 94.6324 28.0296 94.6324 28.0304C94.6324 28.264 94.8221 28.4541 95.056 28.4541H100.183C100.417 28.4541 100.604 28.264 100.605 28.0304V1.56077ZM63.4533 5.09969C63.4533 3.27825 61.9768 1.80632 60.1552 1.80632C58.3355 1.80632 56.8579 3.27825 56.8579 5.09969C56.8579 6.91913 58.3355 8.39507 60.1552 8.39507C61.9768 8.39507 63.4533 6.91913 63.4533 5.09969ZM63.0475 22.4606V10.2421C63.0475 10.0102 62.8582 9.82048 62.6243 9.82048H57.5261C57.2923 9.82048 57.083 10.0591 57.083 10.2911V27.7965C57.083 28.3109 57.4071 28.4639 57.8266 28.4639H62.4199C62.9239 28.4639 63.0475 28.2192 63.0475 27.7882V22.4606ZM120.151 9.82048H115.076C114.843 9.82048 114.654 10.0102 114.654 10.2437V23.2226C114.654 23.2226 113.365 24.1556 111.535 24.1556C109.705 24.1556 109.219 23.3344 109.219 21.5621V10.2437C109.219 10.0102 109.03 9.82048 108.797 9.82048H103.646C103.414 9.82048 103.223 10.0102 103.223 10.2437V22.4192C103.223 27.6832 106.19 28.971 110.27 28.971C113.618 28.971 116.317 27.1418 116.317 27.1418C116.317 27.1418 116.445 28.1057 116.503 28.2201C116.562 28.3341 116.713 28.4492 116.877 28.4492L120.154 28.4349C120.386 28.4349 120.577 28.2448 120.577 28.0124L120.575 10.2437C120.575 10.0102 120.385 9.82048 120.151 9.82048ZM131.845 24.1656C130.084 24.1126 128.89 23.3226 128.89 23.3226V14.9402C128.89 14.9402 130.068 14.226 131.514 14.0983C133.341 13.9364 135.102 14.4825 135.102 18.7946C135.102 23.3417 134.307 24.2391 131.845 24.1656ZM133.846 9.25192C130.964 9.25192 129.003 10.5239 129.003 10.5239V1.56077C129.003 1.32702 128.814 1.13847 128.581 1.13847H123.453C123.219 1.13847 123.03 1.32702 123.03 1.56077V28.0304C123.03 28.264 123.219 28.4541 123.453 28.4541H127.012C127.172 28.4541 127.293 28.3724 127.383 28.2292C127.471 28.087 127.599 27.0089 127.599 27.0089C127.599 27.0089 129.696 28.9746 133.666 28.9746C138.327 28.9746 141 26.6362 141 18.4771C141 10.318 136.731 9.25192 133.846 9.25192ZM77.7671 9.77507H73.9307C73.9307 9.77507 73.9249 4.76332 73.9249 4.76221C73.9249 4.57254 73.826 4.4777 73.6043 4.4777H68.3763C68.1731 4.4777 68.0639 4.56608 68.0639 4.75931V9.93958C68.0639 9.93958 65.444 10.5651 65.2669 10.6157C65.0905 10.6662 64.9606 10.8272 64.9606 11.019V14.2744C64.9606 14.5085 65.1497 14.6973 65.3835 14.6973H68.0639V22.5285C68.0639 28.3452 72.1891 28.9167 74.9728 28.9167C76.2447 28.9167 77.7662 28.5126 78.0174 28.4209C78.1693 28.3657 78.2575 28.2101 78.2575 28.0414L78.2618 24.4604C78.2618 24.2268 78.0624 24.0378 77.8378 24.0378C77.6143 24.0378 77.0424 24.1278 76.4536 24.1278C74.5692 24.1278 73.9307 23.2611 73.9307 22.1394C73.9307 21.0185 73.9305 14.6973 73.9305 14.6973H77.7671C78.001 14.6973 78.1902 14.5085 78.1902 14.2744V10.1969C78.1902 9.9634 78.001 9.77507 77.7671 9.77507Z" fill="white"/>
</g>
<defs>
<clipPath id="clip0_2004_208">
<rect width="141" height="28.9492" fill="white" transform="translate(0 0.0253906)"/>
</clipPath>
<clipPath id="clip1_2004_208">
<rect width="25" height="25" fill="white" transform="translate(0 2)"/>
</clipPath>
</defs>
</svg>
