<svg width="94" height="31" viewBox="0 0 94 31" fill="none" xmlns="http://www.w3.org/2000/svg">
<g clip-path="url(#clip0_2004_200)">
<path d="M91.0721 18.9455L93.6797 20.6928C92.8334 21.9457 90.809 24.0953 87.3093 24.0953C82.9632 24.0953 79.7266 20.7158 79.7266 16.4166C79.7266 11.8417 82.9975 8.73804 86.9433 8.73804C90.9119 8.73804 92.8562 11.9106 93.4853 13.6234L93.8284 14.497L83.6037 18.7501C84.3814 20.2904 85.5937 21.0721 87.3093 21.0721C89.0248 21.0721 90.2143 20.2215 91.0721 18.9455ZM83.0547 16.1753L89.8826 13.3245C89.5052 12.3704 88.3844 11.6922 87.0462 11.6922C85.3421 11.6922 82.9747 13.2096 83.0547 16.1753Z" fill="white"/>
<path d="M74.7974 0.909912H78.0912V23.394H74.7974V0.909912Z" fill="white"/>
<path d="M69.6049 9.33579H72.7844V22.9918C72.7844 28.6588 69.4562 30.9922 65.5219 30.9922C61.8163 30.9922 59.5861 28.4863 58.7512 26.4517L61.6676 25.2333C62.1937 26.4862 63.4632 27.9691 65.5219 27.9691C68.0495 27.9691 69.6049 26.3943 69.6049 23.4516V22.3481H69.4905C68.7357 23.2676 67.2946 24.0953 65.4647 24.0953C61.6447 24.0953 58.145 20.7503 58.145 16.4397C58.145 12.1061 61.6447 8.72656 65.4647 8.72656C67.2832 8.72656 68.7357 9.5427 69.4905 10.4393H69.6049V9.33579ZM69.8336 16.4397C69.8336 13.7269 68.038 11.7497 65.7506 11.7497C63.4403 11.7497 61.4961 13.7269 61.4961 16.4397C61.4961 19.118 63.4403 21.0606 65.7506 21.0606C68.038 21.0721 69.8336 19.118 69.8336 16.4397Z" fill="white"/>
<path d="M40.063 16.3822C40.063 20.8078 36.6319 24.0609 32.4231 24.0609C28.2143 24.0609 24.7832 20.7963 24.7832 16.3822C24.7832 11.9337 28.2143 8.69214 32.4231 8.69214C36.6319 8.69214 40.063 11.9337 40.063 16.3822ZM36.7234 16.3822C36.7234 13.6235 34.7334 11.7268 32.4231 11.7268C30.1128 11.7268 28.1228 13.6235 28.1228 16.3822C28.1228 19.118 30.1128 21.0377 32.4231 21.0377C34.7334 21.0377 36.7234 19.118 36.7234 16.3822Z" fill="white"/>
<path d="M56.75 16.4166C56.75 20.8422 53.3189 24.0953 49.1101 24.0953C44.9013 24.0953 41.4702 20.8422 41.4702 16.4166C41.4702 11.9681 44.9013 8.73804 49.1101 8.73804C53.3189 8.73804 56.75 11.9566 56.75 16.4166ZM53.399 16.4166C53.399 13.6579 51.409 11.7612 49.0987 11.7612C46.7884 11.7612 44.7984 13.6579 44.7984 16.4166C44.7984 19.1524 46.7884 21.0721 49.0987 21.0721C51.4204 21.0721 53.399 19.1409 53.399 16.4166Z" fill="white"/>
<path d="M12.2256 20.7272C7.43352 20.7272 3.68219 16.8419 3.68219 12.0256C3.68219 7.20919 7.43352 3.32391 12.2256 3.32391C14.8104 3.32391 16.6975 4.34696 18.0928 5.65738L20.3916 3.3469C18.4473 1.47322 15.8511 0.0478516 12.2256 0.0478516C5.66079 0.0478516 0.136719 5.42748 0.136719 12.0256C0.136719 18.6237 5.66079 24.0033 12.2256 24.0033C15.7711 24.0033 18.4473 22.8308 20.5403 20.6468C22.6905 18.4857 23.3538 15.4511 23.3538 12.9911C23.3538 12.221 23.2623 11.4278 23.1594 10.8416H12.2256V14.0372H20.0142C19.7855 16.0373 19.1564 17.4052 18.23 18.3363C17.1092 19.4743 15.3365 20.7272 12.2256 20.7272Z" fill="white"/>
</g>
<defs>
<clipPath id="clip0_2004_200">
<rect width="94" height="31" fill="white"/>
</clipPath>
</defs>
</svg>
