<svg width="42" height="33" viewBox="0 0 42 33" fill="none" xmlns="http://www.w3.org/2000/svg">
<g clip-path="url(#clip0_2004_227)">
<path d="M41.1724 32.5525V32.6373H41.2508C41.2655 32.6376 41.28 32.6338 41.2928 32.6265C41.2979 32.6229 41.302 32.618 41.3047 32.6123C41.3075 32.6067 41.3088 32.6004 41.3085 32.5941C41.3088 32.5879 41.3075 32.5817 41.3047 32.5762C41.302 32.5707 41.2978 32.5659 41.2928 32.5625C41.2801 32.5548 41.2655 32.551 41.2508 32.5517H41.1724V32.5525ZM41.2516 32.4925C41.2852 32.4904 41.3184 32.5001 41.3457 32.5201C41.3566 32.5291 41.3653 32.5406 41.371 32.5536C41.3767 32.5667 41.3794 32.5809 41.3787 32.5951C41.3792 32.6074 41.3771 32.6196 41.3725 32.631C41.3679 32.6424 41.361 32.6526 41.3522 32.6611C41.3312 32.6795 41.3048 32.6906 41.277 32.6927L41.382 32.8136H41.3012L41.2046 32.6935H41.1733V32.8136H41.1057V32.4927H41.2527L41.2516 32.4925ZM41.2306 32.9243C41.2661 32.9246 41.3012 32.9174 41.3337 32.9031C41.3651 32.8894 41.3936 32.8699 41.4177 32.8456C41.4419 32.8213 41.4612 32.7925 41.4746 32.7608C41.5022 32.6935 41.5022 32.618 41.4746 32.5508C41.461 32.5192 41.4417 32.4904 41.4177 32.466C41.3936 32.4416 41.3651 32.4221 41.3337 32.4085C41.301 32.395 41.2659 32.3882 41.2306 32.3886C41.1947 32.3882 41.159 32.395 41.1256 32.4085C41.0936 32.4219 41.0644 32.4414 41.0397 32.466C41.0026 32.5045 40.9774 32.5531 40.9675 32.6059C40.9575 32.6587 40.9631 32.7133 40.9836 32.7629C40.9964 32.7947 41.0155 32.8236 41.0397 32.8477C41.0644 32.8723 41.0936 32.8918 41.1256 32.9052C41.1588 32.9195 41.1945 32.9267 41.2306 32.9264M41.2306 32.3114C41.3229 32.3113 41.4115 32.3478 41.4774 32.4132C41.5091 32.4445 41.5344 32.4819 41.5517 32.5232C41.5696 32.5656 41.5789 32.6113 41.5789 32.6574C41.5789 32.7035 41.5696 32.7491 41.5517 32.7915C41.534 32.8326 41.5087 32.8699 41.4774 32.9016C41.4451 32.9328 41.4077 32.9579 41.3667 32.9758C41.3237 32.9943 41.2774 33.0037 41.2306 33.0034C41.1833 33.0037 41.1364 32.9944 41.0928 32.9758C41.0514 32.9583 41.0136 32.9332 40.9813 32.9016C40.95 32.8688 40.9251 32.8302 40.908 32.7879C40.8901 32.7455 40.8808 32.6999 40.8808 32.6538C40.8808 32.6077 40.8901 32.562 40.908 32.5196C40.9254 32.4783 40.9506 32.4409 40.9824 32.4096C41.0142 32.3774 41.0521 32.3522 41.0939 32.3353C41.1375 32.3168 41.1844 32.3074 41.2317 32.3078M9.0754 31.0722C9.0754 30.4603 9.4723 29.9577 10.121 29.9577C10.7409 29.9577 11.1592 30.4387 11.1592 31.0722C11.1592 31.7057 10.7409 32.1867 10.121 32.1867C9.4723 32.1867 9.0754 31.684 9.0754 31.0722ZM11.8659 31.0722V29.331H11.1164V29.7551C10.8787 29.4417 10.5181 29.2451 10.0278 29.2451C9.06175 29.2451 8.30365 30.0103 8.30365 31.073C8.30365 32.1358 9.06133 32.901 10.0278 32.901C10.5179 32.901 10.8787 32.7041 11.1164 32.3909V32.8136H11.865V31.0722H11.8659ZM37.1902 31.0722C37.1902 30.4603 37.5871 29.9577 38.236 29.9577C38.8566 29.9577 39.2742 30.4387 39.2742 31.0722C39.2742 31.7057 38.8566 32.1867 38.236 32.1867C37.5873 32.1867 37.1902 31.684 37.1902 31.0722ZM39.9815 31.0722V27.9333H39.2314V29.7551C38.9937 29.4417 38.6331 29.2451 38.1428 29.2451C37.1768 29.2451 36.4187 30.0103 36.4187 31.073C36.4187 32.1358 37.1763 32.901 38.1428 32.901C38.6331 32.901 38.9937 32.7041 39.2314 32.3909V32.8136H39.9815V31.0722ZM21.168 29.9218C21.651 29.9218 21.9612 30.2277 22.0404 30.7661H20.252C20.332 30.2635 20.6342 29.9218 21.1683 29.9218M21.1832 29.2432C20.1731 29.2432 19.4664 29.9855 19.4664 31.0711C19.4664 32.178 20.2014 32.899 21.2334 32.899C21.7525 32.899 22.2279 32.7682 22.6462 32.4113L22.2789 31.8503C21.99 32.0836 21.6221 32.2144 21.2762 32.2144C20.7932 32.2144 20.3535 31.9886 20.2453 31.3619H22.8046C22.8119 31.2677 22.8195 31.1727 22.8195 31.0709C22.8119 29.9857 22.1475 29.243 21.1827 29.243M30.2316 31.0709C30.2316 30.459 30.6285 29.9564 31.2772 29.9564C31.8972 29.9564 32.3155 30.4374 32.3155 31.0709C32.3155 31.7044 31.8972 32.1854 31.2772 32.1854C30.6285 32.1854 30.2314 31.6828 30.2314 31.0709M33.0219 31.0709V29.331H32.2728V29.7551C32.0343 29.4417 31.6746 29.2451 31.1842 29.2451C30.2182 29.2451 29.4601 30.0103 29.4601 31.073C29.4601 32.1358 30.2178 32.901 31.1842 32.901C31.6746 32.901 32.0343 32.7041 32.2728 32.3909V32.8136H33.0221V31.0722L33.0219 31.0709ZM25.9991 31.0709C25.9991 32.1269 26.727 32.8988 27.8379 32.8988C28.357 32.8988 28.7028 32.7822 29.0769 32.4838L28.7169 31.8719C28.4355 32.0762 28.14 32.1854 27.8139 32.1854C27.2156 32.178 26.7757 31.7411 26.7757 31.0709C26.7757 30.4007 27.2156 29.964 27.8139 29.9564C28.1392 29.9564 28.4347 30.0656 28.7169 30.2699L29.0769 29.658C28.7022 29.3596 28.3563 29.243 27.8379 29.243C26.727 29.243 25.9991 30.0147 25.9991 31.0709ZM35.6612 29.243C35.2288 29.243 34.9472 29.4472 34.7525 29.753V29.331H34.0098V32.8117H34.7601V30.8605C34.7601 30.2845 35.0052 29.9645 35.4951 29.9645C35.6555 29.9621 35.8148 29.9919 35.9638 30.0521L36.1948 29.3386C36.0289 29.2726 35.8126 29.2436 35.6608 29.2436M15.5713 29.6077C15.2108 29.3677 14.7139 29.2436 14.1658 29.2436C13.2926 29.2436 12.7305 29.6663 12.7305 30.3579C12.7305 30.9254 13.149 31.2756 13.9197 31.3848L14.2737 31.4357C14.6847 31.494 14.8788 31.6032 14.8788 31.7998C14.8788 32.069 14.6058 32.2225 14.0931 32.2225C13.574 32.2225 13.1994 32.055 12.9468 31.8584L12.5946 32.4486C13.0056 32.7544 13.5247 32.9003 14.0868 32.9003C15.0822 32.9003 15.6591 32.4269 15.6591 31.7642C15.6591 31.1523 15.2051 30.8323 14.455 30.7231L14.1018 30.6713C13.7773 30.6289 13.5173 30.563 13.5173 30.3297C13.5173 30.0752 13.7624 29.922 14.1736 29.922C14.6135 29.922 15.0394 30.0896 15.2481 30.2204L15.5726 29.6086L15.5713 29.6077ZM25.242 29.2442C24.8097 29.2442 24.528 29.4485 24.3342 29.7543V29.331H23.5914V32.8117H24.3409V30.8605C24.3409 30.2845 24.586 29.9645 25.0759 29.9645C25.2364 29.9621 25.3957 29.9919 25.5447 30.0521L25.7757 29.3386C25.6098 29.2726 25.3935 29.2436 25.2416 29.2436M18.8463 29.331H17.6207V28.275H16.863V29.331H16.164V30.0228H16.863V31.6106C16.863 32.4183 17.1734 32.8993 18.06 32.8993C18.3853 32.8993 18.76 32.7975 18.9977 32.6301L18.7812 31.982C18.5575 32.1129 18.3125 32.1788 18.1176 32.1788C17.7429 32.1788 17.6207 31.9455 17.6207 31.5962V30.0234H18.8463V29.331ZM7.64089 32.8125V30.6281C7.64089 29.8054 7.12177 29.2519 6.28492 29.2444C5.84497 29.237 5.39116 29.3753 5.07343 29.8637C4.83571 29.4777 4.46107 29.2444 3.93439 29.2444C3.56626 29.2444 3.20653 29.3537 2.92492 29.7613V29.331H2.1748V32.8117H2.9308V30.8817C2.9308 30.2775 3.2626 29.9564 3.775 29.9564C4.2727 29.9564 4.52449 30.2841 4.52449 30.8741V32.8112H5.28217V30.8813C5.28217 30.2771 5.62804 29.956 6.12553 29.956C6.6373 29.956 6.88153 30.2836 6.88153 30.8737V32.8108L7.64089 32.8125Z" fill="white"/>
<path d="M41.5997 21.2341V20.7251H41.4685L41.3167 21.0744L41.1657 20.7251H41.034V21.2341H41.1272V20.8507L41.2692 21.1815H41.3658L41.5078 20.8498V21.2341H41.6002H41.5997ZM40.7671 21.2341V20.8123H40.9351V20.7264H40.5059V20.8123H40.6739V21.2341H40.7663H40.7671Z" fill="#F79410"/>
<path d="M26.6818 23.4171H15.3237V2.80273H26.682L26.6818 23.4171Z" fill="#FF5F00"/>
<path d="M16.044 13.1101C16.044 8.92843 17.9827 5.20342 21.0017 2.80286C18.7165 0.983083 15.89 -0.00457247 12.9799 -0.000229881C5.81112 -0.000229881 0 5.86936 0 13.1101C0 20.3508 5.81112 26.2203 12.9799 26.2203C15.8901 26.2247 18.7166 25.2371 21.0019 23.4173C17.9831 21.0171 16.044 17.2919 16.044 13.1101Z" fill="#EB001B"/>
<path d="M42.0054 13.1103C42.0054 20.351 36.1943 26.2206 29.0255 26.2206C26.115 26.2249 23.2881 25.2373 21.0024 23.4175C24.0222 21.0169 25.961 17.2921 25.961 13.1103C25.961 8.92847 24.0222 5.20366 21.0024 2.80311C23.2881 0.983382 26.1148 -0.00425221 29.0253 1.37619e-05C36.1941 1.37619e-05 42.0052 5.8696 42.0052 13.1103" fill="#F79E1B"/>
</g>
<defs>
<clipPath id="clip0_2004_227">
<rect width="42" height="33" fill="white"/>
</clipPath>
</defs>
</svg>
