<svg width="126" height="27" viewBox="0 0 126 27" fill="none" xmlns="http://www.w3.org/2000/svg">
<g clip-path="url(#clip0_2004_169)">
<path d="M126 12.1373V9.92713H123.248V6.4911L123.156 6.51952L120.571 7.30821L120.52 7.32371V9.92713H116.441V8.47695C116.441 7.80163 116.592 7.2848 116.891 6.94015C117.187 6.5996 117.611 6.42652 118.151 6.42652C118.54 6.42652 118.942 6.51785 119.347 6.69792L119.449 6.74306V4.41544L119.401 4.39797C119.023 4.26257 118.509 4.19434 117.873 4.19434C117.07 4.19434 116.341 4.36849 115.705 4.71375C115.068 5.05946 114.568 5.55304 114.217 6.18064C113.867 6.80749 113.69 7.53144 113.69 8.33259V9.92713H111.774V12.1373H113.69V21.4482H116.441V12.1373H120.52V18.0543C120.52 20.4911 121.673 21.7261 123.945 21.7261C124.319 21.7261 124.712 21.6824 125.113 21.5968C125.522 21.5091 125.8 21.4215 125.964 21.3278L126 21.3066V19.0759L125.888 19.1498C125.739 19.2491 125.553 19.3301 125.335 19.3903C125.116 19.4517 124.933 19.4826 124.792 19.4826C124.259 19.4826 123.865 19.3394 123.621 19.0571C123.374 18.7721 123.248 18.2737 123.248 17.5766V12.1373H126ZM105.631 19.4828C104.633 19.4828 103.846 19.1526 103.291 18.5022C102.733 17.8484 102.45 16.9164 102.45 15.7323C102.45 14.5107 102.733 13.5545 103.291 12.8893C103.846 12.2284 104.626 11.893 105.609 11.893C106.563 11.893 107.322 12.2133 107.866 12.8456C108.412 13.4812 108.69 14.4297 108.69 15.6656C108.69 16.9167 108.429 17.8777 107.914 18.5205C107.404 19.1586 106.636 19.4828 105.631 19.4828ZM105.754 9.64956C103.849 9.64956 102.336 10.2062 101.258 11.3041C100.18 12.4022 99.633 13.9217 99.633 15.8209C99.633 17.6247 100.167 19.0757 101.219 20.1327C102.271 21.1902 103.703 21.7259 105.475 21.7259C107.322 21.7259 108.804 21.1615 109.883 20.0484C110.961 18.9363 111.507 17.4313 111.507 15.5764C111.507 13.7444 110.994 12.2826 109.983 11.2326C108.971 10.182 107.548 9.64956 105.754 9.64956ZM95.1981 9.6495C93.9024 9.6495 92.8307 9.98002 92.012 10.6318C91.1883 11.2874 90.7706 12.1473 90.7706 13.1878C90.7706 13.7286 90.8607 14.2091 91.0382 14.6166C91.2168 15.0255 91.4932 15.3853 91.8602 15.6874C92.2247 15.9871 92.7869 16.3011 93.5322 16.6203C94.1585 16.8775 94.6258 17.0951 94.9226 17.2665C95.2127 17.4344 95.4187 17.6034 95.535 17.7678C95.6479 17.9287 95.7053 18.1489 95.7053 18.4209C95.7053 19.1949 95.1242 19.5715 93.9283 19.5715C93.4848 19.5715 92.9788 19.4792 92.4246 19.297C91.87 19.1151 91.3518 18.8536 90.8847 18.5182L90.7706 18.4366V21.0779L90.8124 21.0973C91.2017 21.2765 91.6923 21.4275 92.2707 21.5465C92.848 21.6655 93.3724 21.7261 93.8281 21.7261C95.234 21.7261 96.3662 21.3939 97.1923 20.7384C98.0237 20.0783 98.4452 19.1981 98.4452 18.1214C98.4452 17.3449 98.2183 16.6788 97.7711 16.1418C97.3272 15.609 96.5565 15.12 95.4815 14.6877C94.6251 14.3448 94.0764 14.0602 93.8502 13.8419C93.632 13.6308 93.5212 13.3323 93.5212 12.9544C93.5212 12.6193 93.6579 12.3509 93.9387 12.1335C94.2216 11.915 94.6153 11.8039 95.1093 11.8039C95.5676 11.8039 96.0365 11.8761 96.5027 12.0175C96.9688 12.159 97.378 12.3485 97.7198 12.5804L97.8321 12.657V10.1514L97.789 10.1329C97.4737 9.9981 97.0581 9.88276 96.5533 9.78915C96.0505 9.69645 95.5945 9.6495 95.1981 9.6495ZM83.5996 19.4828C82.6015 19.4828 81.8142 19.1526 81.2596 18.5022C80.7013 17.8484 80.419 16.9167 80.419 15.7323C80.419 14.5107 80.7016 13.5545 81.2602 12.8893C81.8148 12.2284 82.5942 11.893 83.5776 11.893C84.531 11.893 85.2902 12.2133 85.8341 12.8456C86.3808 13.4812 86.6581 14.4297 86.6581 15.6656C86.6581 16.9167 86.3971 17.8777 85.8827 18.5205C85.372 19.1586 84.6043 19.4828 83.5996 19.4828ZM83.7224 9.64956C81.8172 9.64956 80.3043 10.2062 79.2262 11.3041C78.1482 12.4022 77.6013 13.9217 77.6013 15.8209C77.6013 17.6255 78.1352 19.0757 79.1875 20.1327C80.2398 21.1902 81.6718 21.7259 83.4438 21.7259C85.2898 21.7259 86.773 21.1615 87.8512 20.0484C88.929 18.9363 89.4755 17.4313 89.4755 15.5764C89.4755 13.7444 88.9628 12.2826 87.9513 11.2326C86.9392 10.182 85.5163 9.64956 83.7224 9.64956ZM73.4258 11.9223V9.92713H70.7087V21.4479H73.4258V15.5546C73.4258 14.5524 73.6536 13.7292 74.1031 13.1074C74.5469 12.493 75.1383 12.1817 75.8604 12.1817C76.1051 12.1817 76.3798 12.2219 76.6773 12.3016C76.9718 12.3807 77.1851 12.4666 77.311 12.557L77.4251 12.6395V9.90738L77.3811 9.88854C77.128 9.78125 76.7701 9.72715 76.3171 9.72715C75.6344 9.72715 75.0233 9.94598 74.5 10.3768C74.0406 10.7555 73.7085 11.2747 73.4546 11.9223H73.4258ZM65.8429 9.6495C64.5964 9.6495 63.4845 9.91619 62.5387 10.4417C61.591 10.9684 60.8582 11.7204 60.3595 12.6768C59.8631 13.6308 59.6111 14.7451 59.6111 15.9877C59.6111 17.0762 59.8555 18.0752 60.3385 18.9556C60.8217 19.8374 61.5058 20.5273 62.3717 21.0058C63.2363 21.4838 64.2356 21.7261 65.3421 21.7261C66.6333 21.7261 67.7358 21.4686 68.6198 20.9609L68.6554 20.9403V18.4576L68.5413 18.5407C68.1409 18.8315 67.6934 19.0637 67.212 19.2311C66.7317 19.3982 66.2939 19.4827 65.9101 19.4827C64.8439 19.4827 63.9881 19.1499 63.3667 18.494C62.7441 17.8371 62.4284 16.9148 62.4284 15.7541C62.4284 14.5862 62.7576 13.6402 63.4065 12.9421C64.0533 12.2461 64.9107 11.8931 65.9549 11.8931C66.848 11.8931 67.7183 12.1947 68.5416 12.7904L68.6554 12.8729V10.2569L68.6187 10.2362C68.3088 10.0633 67.8863 9.92045 67.3616 9.8121C66.8393 9.70405 66.3284 9.6495 65.8429 9.6495ZM57.7397 9.92717H55.0226V21.4479H57.7397V9.92717ZM56.4089 5.01922C55.9617 5.01922 55.5717 5.17103 55.2513 5.47192C54.9295 5.77372 54.7662 6.15362 54.7662 6.60191C54.7662 7.04321 54.9275 7.41613 55.2461 7.70988C55.5627 8.00271 55.9539 8.15117 56.4089 8.15117C56.8637 8.15117 57.2565 8.00271 57.5769 7.71033C57.8994 7.41613 58.0629 7.04321 58.0629 6.60191C58.0629 6.16928 57.9038 5.79317 57.5901 5.48408C57.2769 5.17559 56.8794 5.01922 56.4089 5.01922ZM49.6296 9.07718V21.4479H52.4025V5.37202H48.5647L43.6865 17.3127L38.9526 5.37202H34.9585V21.4479H37.5643V9.07596H37.6539L42.6528 21.4479H44.6192L49.5401 9.07718H49.6296Z" fill="white"/>
<path d="M12.782 12.7488H0V0H12.782V12.7488Z" fill="#F1511B"/>
<path d="M26.8946 12.7488H14.1128V0H26.8946V12.7488Z" fill="#80CC28"/>
<path d="M12.7817 26.8301H0V14.0813H12.7817V26.8301Z" fill="#00ADEF"/>
<path d="M26.8946 26.8301H14.1128V14.0813H26.8946V26.8301Z" fill="#FBBC09"/>
</g>
<defs>
<clipPath id="clip0_2004_169">
<rect width="126" height="27" fill="white"/>
</clipPath>
</defs>
</svg>
