<svg width="127" height="35" viewBox="0 0 127 35" fill="none" xmlns="http://www.w3.org/2000/svg">
<g clip-path="url(#clip0_2004_177)">
<path d="M39.5464 16.826C39.5464 22.5485 43.1627 26.5385 48.1738 26.5385C53.1849 26.5385 56.8012 22.5485 56.8012 16.826C56.8012 11.1035 53.1849 7.11353 48.1738 7.11353C43.1627 7.11353 39.5464 11.1035 39.5464 16.826ZM53.4949 16.826C53.4949 20.921 51.2993 23.5723 48.1738 23.5723C45.0483 23.5723 42.8527 20.921 42.8527 16.826C42.8527 12.731 45.0483 10.0798 48.1738 10.0798C51.2993 10.0798 53.4949 12.731 53.4949 16.826Z" fill="white"/>
<path d="M66.1124 26.5386C69.9095 26.5386 72.0792 23.2836 72.0792 19.3723C72.0792 15.4611 69.9095 12.2061 66.1124 12.2061C64.3559 12.2061 63.0644 12.9148 62.212 13.9386V12.4686H59.1123V30.9748H62.212V24.8061C63.0644 25.8298 64.3559 26.5386 66.1124 26.5386ZM62.1345 18.9786C62.1345 16.3798 63.581 14.9623 65.4924 14.9623C67.7397 14.9623 68.9537 16.7473 68.9537 19.3723C68.9537 21.9973 67.7397 23.7823 65.4924 23.7823C63.581 23.7823 62.1345 22.3386 62.1345 19.7923V18.9786Z" fill="white"/>
<path d="M80.4672 26.5386C83.1794 26.5386 85.3233 25.0948 86.279 22.6798L83.6185 21.6561C83.2052 23.0736 81.9912 23.8611 80.4672 23.8611C78.4782 23.8611 77.0834 22.4173 76.8509 20.0548H86.3565V19.0048C86.3565 15.2248 84.2642 12.2061 80.338 12.2061C76.4118 12.2061 73.8804 15.3298 73.8804 19.3723C73.8804 23.6248 76.5926 26.5386 80.4672 26.5386ZM80.3122 14.8573C82.2753 14.8573 83.2052 16.1698 83.231 17.6923H77.0059C77.4708 15.8286 78.7107 14.8573 80.3122 14.8573Z" fill="white"/>
<path d="M88.6826 26.2498H91.7823V18.1648C91.7823 16.1961 93.203 15.1461 94.5978 15.1461C96.3026 15.1461 96.9742 16.3798 96.9742 18.0861V26.2498H100.074V17.1673C100.074 14.2011 98.3691 12.2061 95.5277 12.2061C93.7712 12.2061 92.5572 13.0198 91.7823 13.9386V12.4686H88.6826V26.2498Z" fill="white"/>
<path d="M109.152 7.40234L102.126 26.2498H105.406L106.982 21.9448H114.99L116.591 26.2498H119.923L112.897 7.40234H109.152ZM110.96 11.1298L113.905 19.0048H108.067L110.96 11.1298Z" fill="white"/>
<path d="M125.244 7.45703H121.938V26.3045H125.244V7.45703Z" fill="white"/>
<path d="M31.9715 14.3248C32.7529 11.9415 32.4838 9.3307 31.2342 7.16289C29.3551 3.83789 25.5774 2.12726 21.8879 2.93226C20.2466 1.0532 17.8885 -0.0153943 15.4163 -8.18027e-05C11.645 -0.0088318 8.29891 2.45867 7.13869 6.10523C4.716 6.60945 2.62481 8.15054 1.40108 10.3348C-0.492076 13.651 -0.0604913 17.8313 2.46875 20.6751C1.68737 23.0584 1.95644 25.6691 3.20599 27.8369C5.08516 31.1619 8.86287 32.8726 12.5523 32.0676C14.1926 33.9466 16.5518 35.0152 19.0239 34.9988C22.7974 35.0087 26.1446 32.539 27.3048 28.8891C29.7275 28.3849 31.8187 26.8438 33.0424 24.6596C34.9334 21.3434 34.5007 17.1663 31.9726 14.3226L31.9715 14.3248ZM19.0261 32.7118C17.5161 32.714 16.0534 32.1769 14.8943 31.1937C14.947 31.1652 15.0385 31.1138 15.0977 31.0766L21.9557 27.0516C22.3066 26.8493 22.5218 26.4698 22.5197 26.0596V16.2344L25.4181 17.9352C25.4493 17.9505 25.4697 17.9812 25.474 18.0162V26.1526C25.4697 29.7707 22.5864 32.7041 19.0261 32.7118ZM5.15942 26.6929C4.4028 25.3651 4.13051 23.8087 4.38989 22.2982C4.44047 22.3288 4.52981 22.3846 4.59331 22.4218L11.4513 26.4468C11.7989 26.6535 12.2294 26.6535 12.5782 26.4468L20.9505 21.5337V24.9352C20.9526 24.9702 20.9365 25.0041 20.9096 25.026L13.9773 29.0937C10.8895 30.9005 6.94603 29.8265 5.1605 26.6929H5.15942ZM3.35452 11.4799C4.10791 10.1499 5.29719 9.13273 6.71356 8.60445C6.71356 8.6646 6.71033 8.7707 6.71033 8.84507V16.8962C6.70818 17.3052 6.92343 17.6848 7.27322 17.8871L15.6455 22.7991L12.7471 24.4999C12.7181 24.5196 12.6815 24.5229 12.6492 24.5087L5.71586 20.4377C2.63449 18.6243 1.57759 14.6179 3.35344 11.481L3.35452 11.4799ZM27.1681 17.1116L18.7958 12.1985L21.6942 10.4988C21.7232 10.4791 21.7598 10.4759 21.7921 10.4901L28.7255 14.5577C31.8122 16.3701 32.8702 20.383 31.0868 23.5199C30.3323 24.8477 29.1441 25.8649 27.7288 26.3943V18.1026C27.7321 17.6935 27.5179 17.3151 27.1692 17.1116H27.1681ZM30.0525 12.6994C30.0019 12.6677 29.9126 12.613 29.8491 12.5759L22.9911 8.55085C22.6434 8.34414 22.2129 8.34414 21.8642 8.55085L13.4919 13.464V10.0624C13.4898 10.0274 13.5059 9.99351 13.5328 9.97164L20.4651 5.90726C23.5529 4.09711 27.5007 5.17445 29.2808 8.31351C30.0331 9.63914 30.3054 11.1912 30.0503 12.6994H30.0525ZM11.9163 18.7621L9.01678 17.0613C8.98557 17.046 8.96512 17.0154 8.96081 16.9804V8.84398C8.96297 5.22148 11.8549 2.28586 15.4195 2.28804C16.9274 2.28804 18.3868 2.82617 19.5459 3.80617C19.4932 3.83461 19.4028 3.88601 19.3425 3.9232L12.4845 7.9482C12.1337 8.15054 11.9184 8.52898 11.9206 8.93914L11.9163 18.7599V18.7621ZM13.4908 15.3124L17.2201 13.1238L20.9494 15.3113V19.6874L17.2201 21.8749L13.4908 19.6874V15.3124Z" fill="white"/>
</g>
<defs>
<clipPath id="clip0_2004_177">
<rect width="127" height="35" fill="white"/>
</clipPath>
</defs>
</svg>
