<svg width="119" height="37" viewBox="0 0 119 37" fill="none" xmlns="http://www.w3.org/2000/svg">
<path d="M16.9874 34.2917C25.7409 34.2917 32.8371 27.3764 32.8371 18.846C32.8371 10.3156 25.7409 3.40039 16.9874 3.40039C8.23384 3.40039 1.1377 10.3156 1.1377 18.846C1.1377 27.3764 8.23384 34.2917 16.9874 34.2917Z" fill="#26A17B"/>
<path d="M18.677 20.2712V20.2687C18.5675 20.2761 18.0018 20.3084 16.743 20.3084C15.7364 20.3084 15.0306 20.2811 14.7809 20.2687V20.2712C10.9102 20.1048 8.02309 19.4492 8.02309 18.662C8.02309 17.8773 10.9127 17.2193 14.7809 17.0529V19.6181C15.0331 19.6355 15.7594 19.6777 16.7608 19.6777C17.9635 19.6777 18.5649 19.628 18.677 19.6181V17.0554C22.5401 17.2243 25.4195 17.8798 25.4195 18.6645C25.4195 19.4492 22.5375 20.1048 18.677 20.2737M18.677 16.7897V14.4952H24.0664V10.9963H9.39401V14.4952H14.7834V16.7897C10.4031 16.9859 7.11084 17.8302 7.11084 18.8433C7.11084 19.8565 10.4056 20.7008 14.7834 20.8994V28.2547H18.6796V20.8994C23.0523 20.7033 26.3394 19.859 26.3394 18.8458C26.3394 17.8351 23.0523 16.9884 18.6796 16.7922" fill="white"/>
<path d="M46.3004 11.9525V15.6625H50.0004V18.4462H46.2749V24.0905C46.2749 25.3371 46.9808 25.9455 48.0153 25.9455C48.5326 25.9455 49.1314 25.7866 49.6207 25.5482L50.5457 28.3046C49.5952 28.6746 48.8053 28.8335 47.7987 28.8608C44.8887 28.9676 42.9852 27.351 42.9852 24.0905V18.4462H40.4829V15.6625H42.9852V12.2977L46.3004 11.9525ZM110.089 15.4887L110.334 16.9985C111.368 15.3819 112.754 15.1435 114.115 15.1435C115.501 15.1435 116.834 15.6724 117.568 16.3876L116.072 19.1961C115.392 18.6399 114.767 18.3468 113.679 18.3468C111.939 18.3468 110.334 19.2482 110.334 21.6595V28.5504H107.016V15.4837L110.089 15.4887ZM101.958 20.4973C101.741 18.8013 100.38 17.952 98.4769 17.952C96.683 17.952 95.2127 18.8013 94.7235 20.4973H101.958ZM94.67 23.1742C94.8865 24.7908 96.3288 25.9579 98.668 25.9579C99.8912 25.9579 101.497 25.506 102.258 24.7387L104.379 26.7799C102.964 28.2102 100.653 28.9005 98.612 28.9005C93.9896 28.9005 91.2401 26.1168 91.2401 21.9301C91.2401 17.9545 94.0151 15.0913 98.3674 15.0913C102.855 15.0913 105.658 17.7956 105.14 23.1742H94.67ZM80.0383 10.0007V17.2617C81.236 15.7519 82.7037 15.2999 84.2275 15.2999C88.0345 15.2999 89.7214 17.8179 89.7214 21.6619V28.5529H86.4037V21.6893C86.4037 19.3029 85.1245 18.2972 83.356 18.2972C81.3965 18.2972 80.0383 19.9138 80.0383 21.8755V28.5554H76.7206V10.0032L80.0383 10.0007ZM71.2267 11.8036V15.5135H74.9267V18.2972H71.2012V23.9415C71.2012 25.1881 71.9096 25.7965 72.9416 25.7965C73.4589 25.7965 74.0577 25.6376 74.547 25.3992L75.472 28.1556C74.5215 28.5256 73.7316 28.6845 72.725 28.7118C69.815 28.8186 67.9115 27.1995 67.9115 23.9415V18.2972H65.4092V15.5135H67.9115V12.1487L71.2267 11.8036ZM62.0609 20.4973C61.8443 18.8013 60.4836 17.952 58.5801 17.952C56.7862 17.952 55.3159 18.8013 54.8266 20.4973H62.0609ZM54.7731 23.1742C54.9897 24.7908 56.432 25.9579 58.7712 25.9579C59.9943 25.9579 61.5997 25.506 62.3616 24.7387L64.4817 26.7799C63.0674 28.2102 60.7562 28.9005 58.7151 28.9005C54.0902 28.9005 51.3433 26.1168 51.3433 21.9301C51.3433 17.9545 54.1182 15.0913 58.468 15.0913C62.9553 15.0913 65.7558 17.7956 65.241 23.1742H54.7731Z" fill="white"/>
</svg>
