<svg width="83" height="27" viewBox="0 0 83 27" fill="none" xmlns="http://www.w3.org/2000/svg">
<g clip-path="url(#clip0_2004_241)">
<path d="M54.0053 0.0319824C48.138 0.0319824 42.8948 3.09152 42.8948 8.74425C42.8948 15.227 52.1939 15.6746 52.1939 18.9314C52.1939 20.3026 50.6319 21.5301 47.9642 21.5301C44.178 21.5301 41.3482 19.815 41.3482 19.815L40.1373 25.5193C40.1373 25.5193 43.3972 26.968 47.7251 26.968C54.14 26.968 59.1876 23.7583 59.1876 18.0088C59.1876 11.1588 49.8498 10.7243 49.8498 7.7016C49.8498 6.62733 51.132 5.45036 53.7922 5.45036C56.7937 5.45036 59.2424 6.69776 59.2424 6.69776L60.4274 1.18841C60.4274 1.18841 57.7629 0.0319824 54.0053 0.0319824ZM0.325668 0.447783L0.183594 1.27938C0.183594 1.27938 2.65195 1.73386 4.87511 2.64056C7.73765 3.68006 7.94147 4.28536 8.42366 6.16503L13.677 26.5392H20.719L31.568 0.447783H24.5421L17.571 18.1874L14.7264 3.15048C14.4654 1.42957 13.144 0.447783 11.5266 0.447783H0.325668ZM34.3932 0.447783L28.8816 26.5392H35.5814L41.0738 0.447783H34.3932ZM71.7607 0.447783C70.1451 0.447783 69.2891 1.31807 68.661 2.83863L58.8453 26.5392H65.8712L67.2306 22.5891H75.7903L76.6168 26.5392H82.8163L77.408 0.447783H71.7607ZM72.6744 7.49685L74.7571 17.2877H69.1776L72.6744 7.49685Z" fill="white"/>
</g>
<defs>
<clipPath id="clip0_2004_241">
<rect width="83" height="27" fill="white"/>
</clipPath>
</defs>
</svg>
